<?xml version="1.0" encoding="UTF-8"?>
<svg version="1.1" xmlns="http://www.w3.org/2000/svg" width="1017" height="245">
<path d="M0 0 C13.95958175 -0.30064689 27.08081394 1.43962157 40.29296875 6.12109375 C41.13085938 6.40726563 41.96875 6.6934375 42.83203125 6.98828125 C56.57498764 12.04676357 67.77094069 20.13638763 78.29296875 30.12109375 C78.7945752 30.59530762 79.29618164 31.06952148 79.81298828 31.55810547 C98.06247506 49.18189556 108.74681467 74.91709998 109.49609375 100.15234375 C109.91967422 129.98218361 101.22148939 156.33177788 80.27734375 178.109375 C76.45622697 181.99967972 72.53761202 185.69331529 68.29296875 189.12109375 C67.596875 189.68957031 66.90078125 190.25804687 66.18359375 190.84375 C43.19145527 208.24642034 14.50377352 213.05437445 -13.6484375 209.625 C-22.06640346 208.31105327 -29.94900791 205.5848341 -37.70703125 202.12109375 C-39.42019531 201.36505859 -39.42019531 201.36505859 -41.16796875 200.59375 C-49.99424395 196.45338912 -57.24235786 191.32524182 -64.70703125 185.12109375 C-65.51914063 184.47398437 -66.33125 183.826875 -67.16796875 183.16015625 C-82.24683818 170.62088588 -92.25776473 152.70596063 -97.70703125 134.12109375 C-97.91875977 133.40824219 -98.13048828 132.69539062 -98.34863281 131.9609375 C-105.46422476 107.10711079 -102.34599022 80.51583763 -90.51953125 57.55859375 C-75.30360754 30.72443762 -51.73867339 11.15588762 -21.89453125 2.74609375 C-14.51920257 0.94460428 -7.56357599 0.2470715 0 0 Z M-60.16357422 47.73046875 C-63.23708765 51.37572294 -65.99762618 55.19984569 -68.70703125 59.12109375 C-69.29226562 59.9409375 -69.8775 60.76078125 -70.48046875 61.60546875 C-75.25963698 68.83487043 -77.45177838 76.84048605 -79.70703125 85.12109375 C-79.95582031 85.97316406 -80.20460938 86.82523437 -80.4609375 87.703125 C-85.19186992 106.59377126 -81.24481077 130.08644941 -71.69921875 146.7578125 C-59.21152564 167.39484256 -41.11438686 181.88245053 -17.859375 188.37890625 C5.53856134 193.88771406 29.61150087 190.7420921 50.29296875 178.12109375 C58.20574844 172.67941469 65.37320777 166.716839 71.29296875 159.12109375 C71.86144531 158.48429688 72.42992187 157.8475 73.015625 157.19140625 C86.32560281 141.68747606 91.30331867 118.39709126 90.4765625 98.49707031 C89.62262895 87.44589832 86.43643688 76.89805442 81.29296875 67.12109375 C80.62587891 65.62255859 80.62587891 65.62255859 79.9453125 64.09375 C70.88841341 44.98392455 51.82356207 30.97707117 32.31933594 23.80517578 C0.29034122 12.99249588 -37.48846715 22.67610975 -60.16357422 47.73046875 Z " fill="#2780D4" transform="translate(154.70703125,16.87890625)"/>
<path d="M0 0 C4.16338466 1.73126212 7.88050752 4.03482392 11.6875 6.4375 C12.73897217 7.07623047 13.79044434 7.71496094 14.8737793 8.37304688 C17.92715514 10.23099175 20.96367861 12.11436656 24 14 C26.76399551 15.6781805 29.53770555 17.33975964 32.3125 19 C32.90780518 19.35964844 33.50311035 19.71929687 34.11645508 20.08984375 C37.49310089 22.12568517 40.90294479 24.06952395 44.375 25.9375 C49.24050676 28.55682544 54.0354548 31.28601476 58.8125 34.0625 C59.88927002 34.68016235 59.88927002 34.68016235 60.98779297 35.31030273 C73.4582508 42.6038778 73.4582508 42.6038778 75 48 C75.43007087 52.44406569 75.4426965 54.9670415 73.6875 59.0625 C69.72087619 63.39811207 65.01670064 66.00056585 60 69 C58.68889617 69.82676193 57.38042568 70.65771041 56.07421875 71.4921875 C55.39004883 71.92756836 54.70587891 72.36294922 54.00097656 72.81152344 C52.66955268 73.65902231 51.33937838 74.50848903 50.01074219 75.36035156 C46.48556358 77.58083773 42.92933237 79.57169275 39.1875 81.40625 C33.64544591 84.12515326 28.36111724 87.21278004 23.0625 90.375 C22.09755615 90.94573242 21.1326123 91.51646484 20.13842773 92.10449219 C15.19529888 95.040872 10.33962641 98.05197927 5.5625 101.25 C1.01274546 104.16242249 -2.57347812 105.69438985 -8.0625 104.58203125 C-11.99688308 103.38869815 -13.75802826 102.29160697 -16.4375 99.0625 C-18.98362429 94.0720964 -19.15662938 89.76769722 -19.17700195 84.22143555 C-19.18357315 83.44205627 -19.19014435 82.662677 -19.19691467 81.85968018 C-19.21659436 79.28535864 -19.22829775 76.71109527 -19.23828125 74.13671875 C-19.24439454 72.81487044 -19.24439454 72.81487044 -19.25063133 71.46631813 C-19.27146836 66.80282452 -19.28578086 62.13936013 -19.29516602 57.47583008 C-19.30623149 52.66732358 -19.34063967 47.85927968 -19.38033772 43.0509367 C-19.40651826 39.34565894 -19.41485907 35.64049128 -19.41844749 31.93512917 C-19.42330894 30.16296066 -19.43491036 28.39079692 -19.45348549 26.6187191 C-19.47791041 24.13435824 -19.47690631 21.65119295 -19.4699707 19.16674805 C-19.48278076 18.44078934 -19.49559082 17.71483063 -19.50878906 16.96687317 C-19.44248811 10.42264684 -17.12165654 6.43366485 -12.875 1.5625 C-8.55762648 -0.78389865 -4.81929775 -0.76486972 0 0 Z " fill="#0180FC" transform="translate(141,70)"/>
<path d="M0 0 C13.95958175 -0.30064689 27.08081394 1.43962157 40.29296875 6.12109375 C41.13085938 6.40726563 41.96875 6.6934375 42.83203125 6.98828125 C56.57498764 12.04676357 67.77094069 20.13638763 78.29296875 30.12109375 C78.7945752 30.59530762 79.29618164 31.06952148 79.81298828 31.55810547 C98.06247506 49.18189556 108.74681467 74.91709998 109.49609375 100.15234375 C109.92349258 130.25108474 101.04275584 156.26783081 80.0625 178.2734375 C77.82390657 180.57517884 75.57416275 182.86167726 73.29296875 185.12109375 C72.30296875 184.79109375 71.31296875 184.46109375 70.29296875 184.12109375 C70.97359375 183.60546875 71.65421875 183.08984375 72.35546875 182.55859375 C78.30435551 177.62228346 83.073797 172.30753919 87.60546875 166.05859375 C88.03819092 165.46900879 88.47091309 164.87942383 88.91674805 164.27197266 C91.47480795 160.66337998 93.00375475 157.39552656 94.29296875 153.12109375 C95.2731725 152.10168185 96.27099883 151.09863019 97.29296875 150.12109375 C98.00744518 148.01776484 98.00744518 148.01776484 98.29296875 146.12109375 C94.60732791 143.66529678 94.60732791 143.66529678 90.29296875 143.12109375 C90.08671875 143.92546875 89.88046875 144.72984375 89.66796875 145.55859375 C87.85024445 150.26815216 85.19155883 154.01260112 82.29296875 158.12109375 C81.71546875 158.99121094 81.13796875 159.86132812 80.54296875 160.7578125 C73.45935837 171.10283516 64.2354948 179.91315537 53.29296875 186.12109375 C52.73657715 186.43675293 52.18018555 186.75241211 51.60693359 187.07763672 C41.78955706 192.55058635 32.33324919 195.95465291 21.29296875 198.12109375 C20.390625 198.31058594 19.48828125 198.50007812 18.55859375 198.6953125 C-8.97407435 202.28509817 -33.59202796 195.82522242 -55.52734375 178.95703125 C-59.7570858 175.3943453 -62.34062384 172.86857526 -63.51953125 167.24609375 C-63.58140625 166.21484375 -63.64328125 165.18359375 -63.70703125 164.12109375 C-63.04703125 163.79109375 -62.38703125 163.46109375 -61.70703125 163.12109375 C-62.20332031 162.5384375 -62.69960937 161.95578125 -63.2109375 161.35546875 C-71.46708204 151.39169659 -77.31708645 141.95851154 -79.70703125 129.12109375 C-79.04703125 129.12109375 -78.38703125 129.12109375 -77.70703125 129.12109375 C-77.45050781 129.96929687 -77.19398437 130.8175 -76.9296875 131.69140625 C-69.85684571 153.36240299 -54.93215833 170.44483168 -34.70703125 180.99609375 C-13.07185283 191.17876355 10.12925615 193.09731633 32.82275391 185.20898438 C47.65452348 179.79035193 60.49200999 171.63348526 70.29296875 159.12109375 C71.14761719 158.16396484 71.14761719 158.16396484 72.01953125 157.1875 C85.85885022 141.06194992 90.69525694 116.7702201 89.29296875 96.12109375 C88.60678471 90.72692477 87.49148034 85.42165394 86.29296875 80.12109375 C86.95296875 79.79109375 87.61296875 79.46109375 88.29296875 79.12109375 C88.29296875 79.78109375 88.29296875 80.44109375 88.29296875 81.12109375 C88.95296875 81.12109375 89.61296875 81.12109375 90.29296875 81.12109375 C90.29296875 80.13109375 90.29296875 79.14109375 90.29296875 78.12109375 C91.61296875 78.45109375 92.93296875 78.78109375 94.29296875 79.12109375 C91.35683696 70.72917098 88.52326377 62.70081444 83.58984375 55.234375 C82.18340841 52.9425632 81.22739611 50.63787688 80.29296875 48.12109375 C79.63296875 48.12109375 78.97296875 48.12109375 78.29296875 48.12109375 C76.8125 46.6171875 76.8125 46.6171875 75.10546875 44.55859375 C61.95710929 29.23228518 45.25229294 18.28907027 25.29296875 14.12109375 C23.91625 13.81558594 23.91625 13.81558594 22.51171875 13.50390625 C-2.33759444 8.62756253 -28.17878502 14.31404755 -49.08203125 28.30859375 C-50.05914062 28.98277344 -51.03625 29.65695313 -52.04296875 30.3515625 C-54.22626535 31.80175804 -56.33348626 33.02431348 -58.70703125 34.12109375 C-59.03703125 33.13109375 -59.36703125 32.14109375 -59.70703125 31.12109375 C-61.72211483 30.38785579 -61.72211483 30.38785579 -63.70703125 30.12109375 C-64.09375 30.67539062 -64.48046875 31.2296875 -64.87890625 31.80078125 C-65.3996875 32.52523437 -65.92046875 33.2496875 -66.45703125 33.99609375 C-66.9675 34.71539062 -67.47796875 35.4346875 -68.00390625 36.17578125 C-69.79432257 38.22079806 -71.30191441 38.94923895 -73.70703125 40.12109375 C-74.37851043 42.56172816 -74.37851043 42.56172816 -74.70703125 45.12109375 C-76.70703125 48.12109375 -76.70703125 48.12109375 -79.70703125 49.12109375 C-80.36703125 49.12109375 -81.02703125 49.12109375 -81.70703125 49.12109375 C-82.03703125 51.76109375 -82.36703125 54.40109375 -82.70703125 57.12109375 C-83.69703125 57.12109375 -84.68703125 57.12109375 -85.70703125 57.12109375 C-85.70703125 58.11109375 -85.70703125 59.10109375 -85.70703125 60.12109375 C-86.36703125 59.79109375 -87.02703125 59.46109375 -87.70703125 59.12109375 C-87.70703125 58.46109375 -87.70703125 57.80109375 -87.70703125 57.12109375 C-88.36703125 56.79109375 -89.02703125 56.46109375 -89.70703125 56.12109375 C-72.99377286 28.9429988 -49.45506232 9.477998 -18.15234375 1.83203125 C-12.06374921 0.5756546 -6.20105308 0.20256338 0 0 Z " fill="#2680D6" transform="translate(154.70703125,16.87890625)"/>
<path d="M0 0 C5.1665625 -0.0309375 5.1665625 -0.0309375 10.4375 -0.0625 C11.52474365 -0.071604 12.6119873 -0.08070801 13.73217773 -0.09008789 C15.00750366 -0.09383423 15.00750366 -0.09383423 16.30859375 -0.09765625 C17.62041626 -0.10551147 17.62041626 -0.10551147 18.95874023 -0.11352539 C21 0 21 0 22 1 C22.10065628 4.06918188 22.13614443 7.11590276 22.12939453 10.18554688 C22.13202301 11.6317617 22.13202301 11.6317617 22.13470459 13.10719299 C22.13912493 16.31106336 22.13618447 19.51487902 22.1328125 22.71875 C22.13348549 24.93452973 22.13445547 27.15030939 22.13571167 29.36608887 C22.13718889 34.01669007 22.13503331 38.66727211 22.13037109 43.31787109 C22.1246738 49.29382604 22.12795267 55.26973609 22.13394356 61.24568939 C22.13754852 65.82314394 22.13641088 70.40058775 22.13381577 74.9780426 C22.13314632 77.18217474 22.13397554 79.38630783 22.13629532 81.59043884 C22.13882078 84.66513672 22.13498275 87.73976078 22.12939453 90.81445312 C22.13141876 91.73500992 22.13344299 92.65556671 22.13552856 93.60401917 C22.11426228 99.88573772 22.11426228 99.88573772 21 101 C19.58429877 101.08651611 18.164405 101.10704904 16.74609375 101.09765625 C15.89208984 101.09443359 15.03808594 101.09121094 14.15820312 101.08789062 C12.81145508 101.07532227 12.81145508 101.07532227 11.4375 101.0625 C10.53580078 101.05798828 9.63410156 101.05347656 8.70507812 101.04882812 C6.46998686 101.03700225 4.23502563 101.0205222 2 101 C1.34 98.69 0.68 96.38 0 94 C-0.70125 94.598125 -1.4025 95.19625 -2.125 95.8125 C-9.83836121 101.68136179 -17.53322337 102.82371701 -27 102 C-36.84263506 100.14490552 -44.98077706 96.21290633 -51.36328125 88.3125 C-52.43888277 86.58489293 -53.22220698 84.88029574 -54 83 C-54.55300781 81.85144531 -54.55300781 81.85144531 -55.1171875 80.6796875 C-59.45984401 70.6466535 -59.69935496 58.47894634 -55.96875 48.16796875 C-51.58433175 38.356065 -45.05127377 31.85214562 -35.078125 27.7265625 C-26.82282026 24.84030934 -15.77722631 24.2530702 -7.6875 27.9375 C-6.45249146 28.61444967 -5.22228879 29.30034504 -4 30 C-3.01 30.33 -2.02 30.66 -1 31 C-0.67 20.77 -0.34 10.54 0 0 Z M-33.4375 52.125 C-36.6140428 57.96983875 -36.47575185 63.47787461 -36 70 C-34.19057845 75.23779923 -30.95417601 79.18007378 -26.19921875 82.109375 C-21.63230125 83.95885491 -16.80966804 83.690619 -12 83 C-6.59653935 80.62944952 -2.939001 76.59487787 -0.62109375 71.20703125 C1.32393358 64.29545615 0.40503259 58.20202365 -3 52 C-5.76085873 47.81111089 -8.24637045 45.67257336 -13 44 C-21.87013816 42.64566682 -27.93620833 45.07206196 -33.4375 52.125 Z " fill="#FCFDFC" transform="translate(483,72)"/>
<path d="M0 0 C1.00023193 0.00523682 2.00046387 0.01047363 3.03100586 0.01586914 C4.1105957 0.0190918 5.19018555 0.02231445 6.30249023 0.02563477 C8.00695312 0.03820312 8.00695312 0.03820312 9.74584961 0.05102539 C11.45611328 0.05779297 11.45611328 0.05779297 13.20092773 0.06469727 C16.02845312 0.07652792 18.85587601 0.09301129 21.68334961 0.11352539 C21.94849365 0.69392578 22.2136377 1.27432617 22.48681641 1.87231445 C23.78063521 4.70311169 25.07559275 7.53338585 26.37084961 10.36352539 C26.85690674 11.42587402 27.34296387 12.48822266 27.84375 13.58276367 C30.59857704 19.5946429 33.36967191 25.59823333 36.16772461 31.59008789 C36.45625809 32.20863647 36.74479156 32.82718506 37.04206848 33.46447754 C38.44681633 36.47567682 39.85417218 39.48556929 41.26611328 42.4934082 C43.91589682 48.1696905 46.41311512 53.85409466 48.69335938 59.68774414 C50.49686406 64.10688657 52.60143166 68.38285823 54.68334961 72.67602539 C56.36070763 76.15018965 58.02903759 79.62832504 59.68334961 83.11352539 C60.08038086 83.94352051 60.47741211 84.77351563 60.88647461 85.62866211 C61.25256836 86.41644043 61.61866211 87.20421875 61.99584961 88.01586914 C62.32198242 88.71059326 62.64811523 89.40531738 62.98413086 90.12109375 C63.68334961 92.11352539 63.68334961 92.11352539 63.68334961 96.11352539 C56.09334961 96.11352539 48.50334961 96.11352539 40.68334961 96.11352539 C39.38397461 93.57665039 38.08459961 91.03977539 36.74584961 88.42602539 C36.33729736 87.63623291 35.92874512 86.84644043 35.5078125 86.03271484 C35.18546631 85.39551514 34.86312012 84.75831543 34.53100586 84.10180664 C34.20108643 83.45767822 33.87116699 82.8135498 33.53125 82.14990234 C32.68334961 80.11352539 32.68334961 80.11352539 31.68334961 75.11352539 C17.16334961 75.11352539 2.64334961 75.11352539 -12.31665039 75.11352539 C-13.30665039 78.08352539 -14.29665039 81.05352539 -15.31665039 84.11352539 C-17.18550099 88.19225771 -19.25413861 92.12600262 -21.31665039 96.11352539 C-28.90665039 96.11352539 -36.49665039 96.11352539 -44.31665039 96.11352539 C-42.40997582 90.39350168 -40.61552019 85.27953641 -38.13696289 79.87524414 C-37.84232147 79.22836136 -37.54768005 78.58147858 -37.24411011 77.91499329 C-36.31422309 75.87502156 -35.37836961 73.83786768 -34.44165039 71.80102539 C-33.21244846 69.11863218 -31.98605543 66.43497271 -30.76196289 63.75024414 C-30.46366577 63.09652328 -30.16536865 62.44280243 -29.85803223 61.76927185 C-27.62394964 56.84907935 -25.52929401 51.87964125 -23.47436523 46.88183594 C-21.61276346 42.43040141 -19.58800028 38.05663585 -17.56665039 33.67602539 C-13.59926093 25.02695077 -9.78798097 16.3218131 -6.09692383 7.55126953 C-5.74533203 6.71974365 -5.39374023 5.88821777 -5.03149414 5.03149414 C-4.72332764 4.29697021 -4.41516113 3.56244629 -4.09765625 2.80566406 C-2.94631024 0.31114103 -2.84064167 0.13920312 0 0 Z M8.68334961 24.11352539 C3.60960981 34.88712606 -0.55053484 45.81517875 -4.31665039 57.11352539 C4.92334961 57.11352539 14.16334961 57.11352539 23.68334961 57.11352539 C21.20834961 50.67852539 21.20834961 50.67852539 18.68334961 44.11352539 C17.86157227 41.94790039 17.86157227 41.94790039 17.02319336 39.73852539 C16.56041992 38.54227539 16.09764648 37.34602539 15.62084961 36.11352539 C15.15549805 34.89665039 14.69014648 33.67977539 14.21069336 32.42602539 C12.71405299 29.18011481 11.03649858 26.78548809 8.68334961 24.11352539 Z " fill="#FBFCFC" transform="translate(357.316650390625,76.886474609375)"/>
<path d="M0 0 C6.93 0.495 6.93 0.495 14 1 C14 34.33 14 67.66 14 102 C9.38 102 4.76 102 0 102 C-0.66 99.36 -1.32 96.72 -2 94 C-2.825 94.763125 -3.65 95.52625 -4.5 96.3125 C-10.66067397 101.45367709 -18.70196324 103.3389645 -26.62109375 103.21875 C-34.05997057 102.53471535 -41.15649426 100.78105015 -47 96 C-47.64582031 95.51789063 -48.29164063 95.03578125 -48.95703125 94.5390625 C-57.30114449 87.94427171 -60.75854651 79.39717299 -62 69 C-62.84765003 58.65866962 -60.46732133 48.48992657 -54.08203125 40.22265625 C-47.30696789 32.98999011 -39.34289508 28.56444005 -29.48828125 27.6875 C-19.54256343 27.3656972 -10.90974769 28.65401852 -3 35 C-1.05478716 33.05478716 -1.76936393 29.37906004 -1.71875 26.71875 C-1.70034058 25.99006714 -1.68193115 25.26138428 -1.66296387 24.51062012 C-1.6040406 22.17383107 -1.55129346 19.83696827 -1.5 17.5 C-1.43254985 14.42692089 -1.35888207 11.35408684 -1.28125 8.28125 C-1.26767456 7.56771362 -1.25409912 6.85417725 -1.2401123 6.11901855 C-1.11280181 1.11280181 -1.11280181 1.11280181 0 0 Z M-43.5 49.875 C-47.77479699 58.78082705 -48.0555881 67.32270491 -44.97265625 76.671875 C-42.36596251 82.91119014 -37.95356019 86.12953348 -32 89 C-25.04382031 91.08685391 -18.3483418 90.40348362 -12 87 C-7.15277423 83.71639545 -3.10892077 80.16289396 -1.40234375 74.4296875 C0.05089442 65.65382202 0.27969757 56.51816584 -5 49 C-9.33621325 44.24249589 -13.72428939 41.41596325 -20.19921875 40.59375 C-30.21604603 40.32454076 -36.81885023 42.19167776 -43.5 49.875 Z " fill="#FAFBFB" transform="translate(815,71)"/>
<path d="M0 0 C-0.47656412 1.79236067 -0.95633498 3.58386897 -1.4375 5.375 C-1.70433594 6.37273437 -1.97117187 7.37046875 -2.24609375 8.3984375 C-3 11 -3 11 -4 13 C-6.59541485 11.98910472 -9.1367218 10.93545927 -11.65625 9.74609375 C-22.16615145 4.90980668 -32.16054602 3.58817235 -43.38671875 6.859375 C-47.49648505 8.65317434 -50.02542359 10.96788179 -52 15 C-52.70339433 19.07968711 -52.50885596 21.0486606 -50.5625 24.6875 C-43.23652517 31.29874558 -32.43151119 32.94006126 -23.15039062 35.35546875 C-11.75234257 38.4143256 -4.15818103 42.28532574 3 52 C5.15782099 58.47346298 5.32983557 67.15841253 2.4375 73.4375 C-3.06300065 82.41908672 -10.55037503 86.82741191 -20.625 89.25 C-35.94351043 91.85036442 -51.96286047 90.08319425 -65.08203125 81.3671875 C-65.71496094 80.91601562 -66.34789062 80.46484375 -67 80 C-67.99 79.34 -68.98 78.68 -70 78 C-69.48474397 72.71862571 -67.74522883 69.42778844 -65 65 C-62.27251785 66.3094328 -59.7696566 67.76640544 -57.25 69.4375 C-47.20959684 75.76407374 -35.83947765 77.53362522 -24.140625 75.50390625 C-18.94377443 74.14319242 -15.84288065 72.82053675 -13 68 C-11.56695936 65.13391871 -11.69355845 63.18699217 -12 60 C-13.97068558 55.52116914 -16.05543429 53.72801879 -20.484375 52 C-25.85326156 49.95041422 -31.30700877 48.51748657 -36.875 47.125 C-59.97216775 41.03915947 -59.97216775 41.03915947 -66 31 C-68.93642524 24.85185965 -69.11721967 17.9736786 -67.27734375 11.4296875 C-63.2745938 1.86846293 -58.42544588 -1.67503482 -49.05859375 -5.80078125 C-33.62286728 -11.85284769 -13.67545503 -8.90494746 0 0 Z " fill="#FAFCFB" transform="translate(590,84)"/>
<path d="M0 0 C8.05415121 5.77735935 13.54338082 13.02372899 15.8984375 22.7265625 C17.77420743 34.44127659 15.56653274 44.92802042 9.2421875 54.91796875 C3.12189243 62.51258591 -5.29092942 66.81543029 -14.625 69 C-26.81606225 70.24398594 -38.01282345 68.31047102 -47.88671875 60.59375 C-55.28556858 53.71634292 -60.16393246 45.26479031 -60.92578125 35.1484375 C-61.19370189 22.65487487 -58.38414774 13.45558756 -49.6875 4.3125 C-36.53861734 -8.41039294 -15.26314878 -9.41441278 0 0 Z M-40 14.5625 C-45.4200278 21.53321695 -46.62807711 28.59309598 -45.6875 37.3125 C-44.3013115 43.2389581 -41.79239116 48.29031074 -36.5703125 51.69140625 C-29.88129127 55.54033486 -24.2494424 57.52410666 -16.41015625 55.81640625 C-11.27537138 54.30416511 -8.18493942 52.50942731 -4.6875 48.3125 C-3.965625 47.52875 -3.24375 46.745 -2.5 45.9375 C1.40579215 40.28083551 2.00863265 33.99312787 1.3125 27.3125 C-0.0195714 20.20408264 -3.30872589 15.1061355 -8.6875 10.3125 C-18.74577184 3.87520602 -32.00709952 6.04323778 -40 14.5625 Z " fill="#FAFCFB" transform="translate(944.6875,104.6875)"/>
<path d="M0 0 C4.95 0 9.9 0 15 0 C15.0093457 1.41216797 15.01869141 2.82433594 15.02832031 4.27929688 C15.06833663 9.54263292 15.13412852 14.80539163 15.20751953 20.06835938 C15.2356616 22.34172116 15.25690961 24.61517955 15.27099609 26.88867188 C15.29251882 30.1658653 15.33921885 33.44190531 15.390625 36.71875 C15.39185364 37.72740112 15.39308228 38.73605225 15.39434814 39.77526855 C15.52058033 45.92338182 16.31211871 50.93024141 20 56 C24.91089294 59.4599473 30.40445345 60.33574713 36.30078125 59.78515625 C42.97504521 58.60734496 46.84952342 56.04032896 50.8125 50.4375 C52.59729831 46.77396662 53.12376776 43.56125998 53.20532227 39.50683594 C53.22526749 38.62622498 53.24521271 37.74561401 53.26576233 36.83831787 C53.28247482 35.89651672 53.29918732 34.95471558 53.31640625 33.984375 C53.33718735 33.01340881 53.35796844 32.04244263 53.37937927 31.04205322 C53.44468862 27.94477315 53.50367323 24.84740932 53.5625 21.75 C53.60570292 19.64842889 53.64931778 17.5468662 53.69335938 15.4453125 C53.80035098 10.29696052 53.9016709 5.14852442 54 0 C58.95 0 63.9 0 69 0 C69.02255243 9.37036254 69.0409159 18.74070718 69.05181217 28.11109066 C69.05704065 32.46168459 69.06413765 36.81225907 69.07543945 41.1628418 C69.08626959 45.35790258 69.0922771 49.55294459 69.09487724 53.74801826 C69.09673126 55.35206968 69.10035144 56.95612003 69.10573006 58.5601635 C69.11294219 60.79916515 69.11399087 63.0380883 69.11352539 65.27709961 C69.115746 66.55395126 69.11796661 67.83080292 69.12025452 69.14634705 C69 72 69 72 68 73 C65.98035801 73.07244053 63.95832876 73.08377188 61.9375 73.0625 C60.83277344 73.05347656 59.72804688 73.04445313 58.58984375 73.03515625 C57.73519531 73.02355469 56.88054688 73.01195312 56 73 C55.01 70.69 54.02 68.38 53 66 C52.46632813 66.40992188 51.93265625 66.81984375 51.3828125 67.2421875 C42.74047602 73.4921817 34.87368817 74.73599431 24.31640625 73.6640625 C16.69107001 72.13719894 8.85710439 68.52444156 4.22175598 62.05258179 C-0.19029867 54.64021536 -0.41767996 46.47910315 -0.29296875 38.0859375 C-0.28872391 36.99028473 -0.28447906 35.89463196 -0.28010559 34.76577759 C-0.263452 31.30192401 -0.22582458 27.83867464 -0.1875 24.375 C-0.17243596 22.01172721 -0.15875058 19.64844521 -0.14648438 17.28515625 C-0.11359213 11.52320838 -0.06190263 5.76170626 0 0 Z " fill="#FBFCFB" transform="translate(667,100)"/>
<path d="M0 0 C0.33 0.66 0.66 1.32 1 2 C2.94603274 2.59070014 2.94603274 2.59070014 5 3 C5.99 3.495 5.99 3.495 7 4 C6.1875 7.4375 6.1875 7.4375 5 11 C4.01 11.33 3.02 11.66 2 12 C1.9071875 12.88171875 1.814375 13.7634375 1.71875 14.671875 C-0.37597595 24.37136691 -10.91806343 35.08908574 -18.64453125 41.03515625 C-21.02748957 43.02293077 -21.67929879 44.28908699 -23 47 C-43.1363106 65.99728697 -71.35309002 69.69747564 -97.64794922 69.13623047 C-109.09057152 68.67119163 -119.55450626 65.66362068 -130 61 C-131.14210937 60.49597656 -132.28421875 59.99195313 -133.4609375 59.47265625 C-148.96987092 52.19749433 -166.50086767 40.24783083 -173 24 C-173.65288627 22.65986503 -174.31225595 21.32258472 -175 20 C-174.34 20 -173.68 20 -173 20 C-172.67 19.34 -172.34 18.68 -172 18 C-169.75 17.0625 -169.75 17.0625 -167 17 C-165.01653388 18.59779215 -163.62806074 20.06667788 -162 22 C-151.68180201 33.76919458 -141.8184484 41.79648348 -128 49 C-127.19691406 49.43441406 -126.39382812 49.86882812 -125.56640625 50.31640625 C-105.42780461 60.32682227 -79.02345864 59.71313498 -58 53 C-44.98901362 48.44862834 -33.45943437 42.06381163 -23.92578125 31.98828125 C-22 30 -22 30 -19.3125 28 C-15.72867521 24.90047586 -13.52330354 20.97611467 -11 17 C-9.94003472 15.43577939 -8.87759452 13.87323257 -7.8125 12.3125 C-5.57926332 8.97143725 -3.68310816 5.64673434 -2 2 C-1.34 2 -0.68 2 0 2 C0 1.34 0 0.68 0 0 Z " fill="#0C61C0" transform="translate(247,158)"/>
<path d="M0 0 C13.95958175 -0.30064689 27.08081394 1.43962157 40.29296875 6.12109375 C41.13085938 6.40726563 41.96875 6.6934375 42.83203125 6.98828125 C64.30049026 14.89035248 84.63255347 31.78983761 95.29296875 52.12109375 C94.30296875 52.12109375 93.31296875 52.12109375 92.29296875 52.12109375 C91.96296875 51.46109375 91.63296875 50.80109375 91.29296875 50.12109375 C89.2683362 49.46896083 89.2683362 49.46896083 87.29296875 49.12109375 C86.96296875 50.77109375 86.63296875 52.42109375 86.29296875 54.12109375 C85.30296875 54.12109375 84.31296875 54.12109375 83.29296875 54.12109375 C80.29296875 50.78776042 80.29296875 50.78776042 80.29296875 48.12109375 C79.63296875 48.12109375 78.97296875 48.12109375 78.29296875 48.12109375 C76.8125 46.6171875 76.8125 46.6171875 75.10546875 44.55859375 C61.95710929 29.23228518 45.25229294 18.28907027 25.29296875 14.12109375 C23.91625 13.81558594 23.91625 13.81558594 22.51171875 13.50390625 C-2.33759444 8.62756253 -28.17878502 14.31404755 -49.08203125 28.30859375 C-50.05914062 28.98277344 -51.03625 29.65695313 -52.04296875 30.3515625 C-54.22626535 31.80175804 -56.33348626 33.02431348 -58.70703125 34.12109375 C-59.03703125 33.13109375 -59.36703125 32.14109375 -59.70703125 31.12109375 C-61.72211483 30.38785579 -61.72211483 30.38785579 -63.70703125 30.12109375 C-64.09375 30.67539062 -64.48046875 31.2296875 -64.87890625 31.80078125 C-65.3996875 32.52523437 -65.92046875 33.2496875 -66.45703125 33.99609375 C-66.9675 34.71539062 -67.47796875 35.4346875 -68.00390625 36.17578125 C-69.79432257 38.22079806 -71.30191441 38.94923895 -73.70703125 40.12109375 C-74.37851043 42.56172816 -74.37851043 42.56172816 -74.70703125 45.12109375 C-76.70703125 48.12109375 -76.70703125 48.12109375 -79.70703125 49.12109375 C-80.36703125 49.12109375 -81.02703125 49.12109375 -81.70703125 49.12109375 C-82.03703125 51.76109375 -82.36703125 54.40109375 -82.70703125 57.12109375 C-83.69703125 57.12109375 -84.68703125 57.12109375 -85.70703125 57.12109375 C-85.70703125 58.11109375 -85.70703125 59.10109375 -85.70703125 60.12109375 C-86.36703125 59.79109375 -87.02703125 59.46109375 -87.70703125 59.12109375 C-87.70703125 58.46109375 -87.70703125 57.80109375 -87.70703125 57.12109375 C-88.36703125 56.79109375 -89.02703125 56.46109375 -89.70703125 56.12109375 C-72.99377286 28.9429988 -49.45506232 9.477998 -18.15234375 1.83203125 C-12.06374921 0.5756546 -6.20105308 0.20256338 0 0 Z " fill="#3B9BEA" transform="translate(154.70703125,16.87890625)"/>
<path d="M0 0 C1.1859375 0.00257812 2.371875 0.00515625 3.59375 0.0078125 C4.7796875 0.00523438 5.965625 0.00265625 7.1875 0 C10.09375 0.1328125 10.09375 0.1328125 11.09375 1.1328125 C11.16700436 3.831503 11.18597351 6.49783806 11.15625 9.1953125 C11.135625 11.8146875 11.115 14.4340625 11.09375 17.1328125 C18.02375 17.1328125 24.95375 17.1328125 32.09375 17.1328125 C32.09375 21.0928125 32.09375 25.0528125 32.09375 29.1328125 C25.16375 29.1328125 18.23375 29.1328125 11.09375 29.1328125 C11.16779766 35.02343138 11.25067078 40.9125451 11.35620117 46.80249023 C11.38941727 48.80534014 11.41745952 50.8082829 11.44018555 52.8112793 C11.47379234 55.69359844 11.52611148 58.57506918 11.58203125 61.45703125 C11.58842117 62.34992355 11.5948111 63.24281586 11.60139465 64.1627655 C11.71308576 68.9053615 11.89631793 72.35162864 15.09375 76.1328125 C19.50571253 77.60346668 24.10401063 77.99324034 28.40625 76.1328125 C29.2415625 75.6378125 29.2415625 75.6378125 30.09375 75.1328125 C31.08375 75.1328125 32.07375 75.1328125 33.09375 75.1328125 C36.52232143 82.41852679 36.52232143 82.41852679 36.09375 87.1328125 C27.7846866 90.73863246 19.14305585 92.3724383 10.23046875 89.98828125 C5.03641028 87.90875875 1.18080884 84.81600038 -1.84375 80.1328125 C-4.04588838 73.91501002 -4.04176945 67.87177072 -4.00390625 61.359375 C-4.0024913 60.4356308 -4.00107635 59.5118866 -3.99961853 58.56015015 C-3.99404609 55.62600388 -3.98149869 52.69193549 -3.96875 49.7578125 C-3.96373144 47.76171986 -3.95916915 45.76562601 -3.95507812 43.76953125 C-3.94408569 38.89059525 -3.9268401 34.01171705 -3.90625 29.1328125 C-8.19625 29.1328125 -12.48625 29.1328125 -16.90625 29.1328125 C-16.90625 25.1728125 -16.90625 21.2128125 -16.90625 17.1328125 C-12.61625 17.1328125 -8.32625 17.1328125 -3.90625 17.1328125 C-3.91785156 15.98941406 -3.92945313 14.84601563 -3.94140625 13.66796875 C-3.95078288 12.17708496 -3.95988321 10.68619941 -3.96875 9.1953125 C-3.97712891 8.44056641 -3.98550781 7.68582031 -3.99414062 6.90820312 C-4.00277441 4.98286937 -3.95849333 3.05745669 -3.90625 1.1328125 C-2.90625 0.1328125 -2.90625 0.1328125 0 0 Z " fill="#FBFCFB" transform="translate(616.90625,82.8671875)"/>
<path d="M0 0 C2.29915508 2.09775468 4.53785679 4.24836913 6.75 6.4375 C7.27601807 6.95787842 7.80203613 7.47825684 8.34399414 8.0144043 C12 11.74290363 12 11.74290363 12 14 C12.66 14 13.32 14 14 14 C15.56366979 16.26400065 16.98612247 18.50628631 18.375 20.875 C18.77912109 21.55812256 19.18324219 22.24124512 19.59960938 22.94506836 C23.65192987 29.9208721 27.14426975 36.87056262 28 45 C26.68 44.67 25.36 44.34 24 44 C24 44.99 24 45.98 24 47 C22.17578125 46.859375 22.17578125 46.859375 20 46 C18.54296875 43.515625 18.54296875 43.515625 17.1875 40.25 C16.40439453 38.47689453 16.40439453 38.47689453 15.60546875 36.66796875 C15.33782715 36.05614746 15.07018555 35.44432617 14.79443359 34.81396484 C5.78330798 14.23846904 -11.08179598 -0.30583979 -31.9140625 -8.55859375 C-54.98283079 -17.04120627 -80.06094157 -14.13515786 -102 -4 C-106.57589152 -1.58063177 -110.78575962 0.97893423 -114.75 4.3125 C-117.48077418 6.36058063 -119.63937122 6.68738337 -123 7 C-123 7.66 -123 8.32 -123 9 C-123.66 9 -124.32 9 -125 9 C-125.66 10.32 -126.32 11.64 -127 13 C-127.99 12.67 -128.98 12.34 -130 12 C-130 11.34 -130 10.68 -130 10 C-131.485 10.495 -131.485 10.495 -133 11 C-131.43387807 7.15588253 -128.97905879 4.84049791 -126 2 C-125.26136719 1.22398438 -124.52273437 0.44796875 -123.76171875 -0.3515625 C-110.84964965 -12.73399935 -94.402331 -19.0218233 -77 -22 C-75.72125 -22.226875 -74.4425 -22.45375 -73.125 -22.6875 C-46.12249639 -25.38775036 -20.8103583 -17.59838341 0 0 Z " fill="#085FBC" transform="translate(221,51)"/>
<path d="M0 0 C0.66 0 1.32 0 2 0 C2.25652344 0.84820312 2.51304688 1.69640625 2.77734375 2.5703125 C9.85018554 24.24130924 24.77487292 41.32373793 45 51.875 C66.63517842 62.0576698 89.8362874 63.97622258 112.52978516 56.08789062 C127.3199693 50.68445099 140.26216772 42.52706063 150 30 C150.61617187 29.2575 151.23234375 28.515 151.8671875 27.75 C155.45225938 23.34675819 158.06689236 19.34447407 160 14 C160.88336837 16.4667645 161.1312406 17.63859372 160.22265625 20.140625 C159.83980469 20.83671875 159.45695313 21.5328125 159.0625 22.25 C158.68222656 22.95640625 158.30195313 23.6628125 157.91015625 24.390625 C157.60980469 24.92171875 157.30945313 25.4528125 157 26 C157.66 26 158.32 26 159 26 C159 26.66 159 27.32 159 28 C159.66 28 160.32 28 161 28 C158.92707099 37.21301782 150.95360001 43.21616448 144 49 C143.08734375 49.79921875 142.1746875 50.5984375 141.234375 51.421875 C121.27660413 68.0101115 95.14058514 72.01236702 70 70 C51.57208011 67.64032733 31.70477867 58.63709418 18.875 44.9375 C16.71445987 41.55265379 16.23871281 38.97854678 16 35 C16.99 34.505 16.99 34.505 18 34 C17.50371094 33.41734375 17.00742188 32.8346875 16.49609375 32.234375 C8.23994921 22.27060284 2.3899448 12.83741779 0 0 Z " fill="#3694E9" transform="translate(75,146)"/>
<path d="M0 0 C4.95 0 9.9 0 15 0 C15.95447499 3.81789997 16.12679252 6.76848808 16.12939453 10.68041992 C16.13114685 11.34264053 16.13289917 12.00486115 16.13470459 12.68714905 C16.13909357 14.86828254 16.13619655 17.04933449 16.1328125 19.23046875 C16.13348615 20.74693314 16.13445668 22.26339743 16.13571167 23.77986145 C16.13718443 26.95310497 16.13504672 30.1263203 16.13037109 33.29956055 C16.12465944 37.37533643 16.12796452 41.45104668 16.13394356 45.52682018 C16.13754811 48.65538533 16.13641133 51.78393477 16.13381577 54.91250038 C16.13314696 56.41606974 16.13397332 57.91964052 16.13629532 59.42320824 C16.13882168 61.51809883 16.13498221 63.61288119 16.12939453 65.70776367 C16.12859894 66.90149094 16.12780334 68.0952182 16.12698364 69.32511902 C16 72 16 72 15 73 C12.66839945 73.09909302 10.33370058 73.12970504 8 73.125 C6.72125 73.12757813 5.4425 73.13015625 4.125 73.1328125 C1 73 1 73 0 72 C-0.09436529 69.76070114 -0.11742327 67.5183825 -0.11352539 65.27709961 C-0.11367142 64.5746965 -0.11381744 63.8722934 -0.1139679 63.14860535 C-0.11326872 60.81648722 -0.10547617 58.484448 -0.09765625 56.15234375 C-0.09579208 54.53951562 -0.09436818 52.92668693 -0.09336853 51.31385803 C-0.08954323 47.06084643 -0.07971285 42.80786876 -0.06866455 38.55487061 C-0.05845069 34.2182257 -0.05387096 29.88157533 -0.04882812 25.54492188 C-0.03809059 17.02993058 -0.0204937 8.51497341 0 0 Z " fill="#FCFDFC" transform="translate(852,100)"/>
<path d="M0 0 C4.84111765 0.58838199 8.96071195 2.07653116 13.375 4.0625 C14.01566406 4.34416016 14.65632812 4.62582031 15.31640625 4.91601562 C16.88029659 5.60459421 18.44053941 6.30144711 20 7 C20 7.66 20 8.32 20 9 C26.3079086 11.84371005 26.3079086 11.84371005 33 13 C33.33 11.68 33.66 10.36 34 9 C36.34138543 11.28356246 38.67166982 13.57813374 41 15.875 C41.66773438 16.52597656 42.33546875 17.17695312 43.0234375 17.84765625 C43.65507812 18.47285156 44.28671875 19.09804688 44.9375 19.7421875 C45.81728516 20.60626221 45.81728516 20.60626221 46.71484375 21.48779297 C48 23 48 23 48 25 C48.66 25 49.32 25 50 25 C51.56366979 27.26400065 52.98612247 29.50628631 54.375 31.875 C54.98118164 32.89968384 54.98118164 32.89968384 55.59960938 33.94506836 C59.65192987 40.9208721 63.14426975 47.87056262 64 56 C62.68 55.67 61.36 55.34 60 55 C60 55.99 60 56.98 60 58 C58.17578125 57.859375 58.17578125 57.859375 56 57 C54.54296875 54.515625 54.54296875 54.515625 53.1875 51.25 C52.66542969 50.06792969 52.14335937 48.88585937 51.60546875 47.66796875 C51.33782715 47.05614746 51.07018555 46.44432617 50.79443359 45.81396484 C40.86821645 23.14900068 22.53294885 9.99582425 0 1 C0 0.67 0 0.34 0 0 Z " fill="#2474C5" transform="translate(185,40)"/>
<path d="M0 0 C2.70703125 0.375 2.70703125 0.375 4.8828125 2.5 C5.58792969 3.44875 6.29304688 4.3975 7.01953125 5.375 C10.93890213 10.45058528 15.09213937 14.93798404 19.70703125 19.375 C21.04270171 20.7059921 22.376638 22.03873305 23.70703125 23.375 C20.70703125 23.375 20.70703125 23.375 18.70703125 22.375 C18.70703125 24.685 18.70703125 26.995 18.70703125 29.375 C19.69703125 29.375 20.68703125 29.375 21.70703125 29.375 C21.76890625 30.15875 21.83078125 30.9425 21.89453125 31.75 C22.16265625 32.61625 22.43078125 33.4825 22.70703125 34.375 C24.3472504 35.10431705 26.0214726 35.75765547 27.70703125 36.375 C29.83783218 37.46793019 31.96228755 38.57327575 34.08203125 39.6875 C43.45974435 44.48376371 53.19527433 48.11305217 63.70703125 49.375 C63.70703125 50.035 63.70703125 50.695 63.70703125 51.375 C40.65119016 50.5515771 18.69739185 34.77569437 2.70703125 19.375 C-0.71306849 15.68489238 -2.42875842 12.03552582 -4.29296875 7.375 C-4.94585502 6.03486503 -5.6052247 4.69758472 -6.29296875 3.375 C-5.63296875 3.375 -4.97296875 3.375 -4.29296875 3.375 C-3.96296875 2.715 -3.63296875 2.055 -3.29296875 1.375 C-2.29296875 0.375 -2.29296875 0.375 0 0 Z " fill="#176BC3" transform="translate(78.29296875,174.625)"/>
<path d="M0 0 C0.66 0.99 1.32 1.98 2 3 C5.465 2.505 5.465 2.505 9 2 C9 2.66 9 3.32 9 4 C7.98421875 4.35191406 6.9684375 4.70382813 5.921875 5.06640625 C-3.94871371 8.57279361 -13.44889526 12.42364282 -21.625 19.1640625 C-24.43109754 21.33324974 -26.51064393 21.67540874 -30 22 C-30 22.66 -30 23.32 -30 24 C-30.66 24 -31.32 24 -32 24 C-32.66 25.32 -33.32 26.64 -34 28 C-34.99 27.67 -35.98 27.34 -37 27 C-37 26.34 -37 25.68 -37 25 C-37.99 25.33 -38.98 25.66 -40 26 C-38.43387807 22.15588253 -35.97905879 19.84049791 -33 17 C-31.90365234 15.83984375 -31.90365234 15.83984375 -30.78515625 14.65625 C-27.64545136 11.66186105 -24.36716175 9.31147656 -20.75 6.9375 C-20.08830811 6.50211914 -19.42661621 6.06673828 -18.74487305 5.61816406 C-4.9436999 -3.31627074 -4.9436999 -3.31627074 0 0 Z " fill="#0E63BE" transform="translate(128,36)"/>
<path d="M0 0 C0.99 0.33 1.98 0.66 3 1 C3 1.66 3 2.32 3 3 C3.66 3 4.32 3 5 3 C2.92707099 12.21301782 -5.04639999 18.21616448 -12 24 C-12.90363281 24.79535156 -13.80726563 25.59070313 -14.73828125 26.41015625 C-18.26604051 29.34543358 -22.11571786 31.54080372 -26.125 33.75 C-26.82753906 34.14832031 -27.53007812 34.54664063 -28.25390625 34.95703125 C-31.50436173 36.7696671 -34.33823956 38.21006989 -38 39 C-38.99 35.535 -38.99 35.535 -40 32 C-39.40832031 31.74605469 -38.81664062 31.49210937 -38.20703125 31.23046875 C-37.41683594 30.88628906 -36.62664062 30.54210937 -35.8125 30.1875 C-35.03519531 29.85105469 -34.25789062 29.51460937 -33.45703125 29.16796875 C-27.65402363 26.40946433 -22.89371957 22.65902656 -17.9375 18.625 C-16.87692383 17.77808594 -16.87692383 17.77808594 -15.79492188 16.9140625 C-12.02718748 13.85742164 -8.99861131 10.8399483 -6 7 C-5.34 7 -4.68 7 -4 7 C-3.71125 6.401875 -3.4225 5.80375 -3.125 5.1875 C-2 3 -2 3 0 0 Z " fill="#308CE2" transform="translate(231,171)"/>
<path d="M0 0 C9.48196561 3.63174073 20.25506898 8.17775361 27 16 C27.75 18.73828125 27.75 18.73828125 28 21 C24.79778402 21 23.30351423 20.389271 20.4375 19.0625 C19.65246094 18.70285156 18.86742187 18.34320313 18.05859375 17.97265625 C16.69856146 17.33006035 15.34539729 16.67269864 14 16 C14 15.34 14 14.68 14 14 C13.26910156 13.88398437 12.53820312 13.76796875 11.78515625 13.6484375 C8.95787041 12.99019143 6.97704308 12.00564121 4.4375 10.625 C-11.36064718 3.36752893 -30.04612474 4.59185115 -47 5 C-47 4.34 -47 3.68 -47 3 C-34.07636044 0.51850239 -20.9027473 2.21150037 -8 4 C-8 3.34 -8 2.68 -8 2 C-9.32 1.67 -10.64 1.34 -12 1 C-12 0.34 -12 -0.32 -12 -1 C-8.12739708 -2.93630146 -3.96618862 -1.19797033 0 0 Z " fill="#0D64C0" transform="translate(191,33)"/>
<path d="M0 0 C3.1875 -0.3125 3.1875 -0.3125 6 0 C6 0.66 6 1.32 6 2 C6.721875 2.0825 7.44375 2.165 8.1875 2.25 C11.63494802 3.16931947 13.45204052 4.52281717 16 7 C16.35169068 8.32860925 16.68770276 9.66158328 17 11 C17.89138672 11.433125 17.89138672 11.433125 18.80078125 11.875 C21.37357375 13.19109989 22.75064166 14.68687242 24.625 16.875 C25.21539062 17.55304687 25.80578125 18.23109375 26.4140625 18.9296875 C27.91318087 20.88666469 28.98569068 22.76048537 30 25 C28.68 25 27.36 25 26 25 C25.67 26.65 25.34 28.3 25 30 C24.01 30 23.02 30 22 30 C19 26.66666667 19 26.66666667 19 24 C18.34 24 17.68 24 17 24 C15.51953125 22.49609375 15.51953125 22.49609375 13.8125 20.4375 C8.71276346 14.45959306 3.74043277 9.11001998 -3 5 C-1.875 2.5 -1.875 2.5 0 0 Z " fill="#3392E4" transform="translate(216,41)"/>
<path d="M0 0 C0.99 0.33 1.98 0.66 3 1 C2.67 1.66 2.34 2.32 2 3 C3.65 3 5.3 3 7 3 C6.92578125 5.20703125 6.92578125 5.20703125 6 8 C3.7329299 9.79195321 1.65218801 11.23345793 -0.8125 12.6875 C-1.44220703 13.07744141 -2.07191406 13.46738281 -2.72070312 13.86914062 C-5.74489696 15.72554503 -8.78883596 17.48743659 -12 19 C-12.33 18.01 -12.66 17.02 -13 16 C-15.01508358 15.26676204 -15.01508358 15.26676204 -17 15 C-17.38671875 15.55429687 -17.7734375 16.10859375 -18.171875 16.6796875 C-18.69265625 17.40414062 -19.2134375 18.12859375 -19.75 18.875 C-20.26046875 19.59429687 -20.7709375 20.31359375 -21.296875 21.0546875 C-23.08729132 23.09970431 -24.59488316 23.8281452 -27 25 C-27.67147918 27.44063441 -27.67147918 27.44063441 -28 30 C-30 33 -30 33 -33 34 C-33.66 34 -34.32 34 -35 34 C-35.33 36.64 -35.66 39.28 -36 42 C-36.99 42 -37.98 42 -39 42 C-39 42.99 -39 43.98 -39 45 C-39.66 44.67 -40.32 44.34 -41 44 C-41 43.34 -41 42.68 -41 42 C-41.66 41.67 -42.32 41.34 -43 41 C-41.27383865 38.27499247 -39.54372822 35.55275212 -37.8046875 32.8359375 C-36.79366695 31.24719093 -35.79107869 29.65272021 -34.8203125 28.0390625 C-32.65089082 24.50702885 -30.53634177 23.05601266 -27 21 C-25.89196167 19.94194836 -24.81105457 18.85516307 -23.75 17.75 C-14.01297768 7.73599455 -14.01297768 7.73599455 -8.953125 6.5 C-5.79511975 5.69155066 -3.97870244 3.39812218 -1.68359375 1.1796875 C-1.12800781 0.79039063 -0.57242188 0.40109375 0 0 Z " fill="#3895E4" transform="translate(108,32)"/>
<path d="M0 0 C1.6416544 3.86271624 1.96265984 7.38707454 1.0625 11.5 C-0.70172024 14.13117382 -2.06375786 14.85025914 -4.9375 16.5 C-8.55599825 17.09077522 -10.3594131 16.76276677 -13.6875 15.25 C-16.13532948 13.34613263 -17.11057625 12.47692549 -17.9375 9.5 C-17.69781155 5.02581557 -17.30593305 1.62783069 -13.9375 -1.5 C-9.33761443 -3.16106979 -3.95111134 -3.05892491 0 0 Z " fill="#F9FBFA" transform="translate(867.9375,71.5)"/>
<path d="M0 0 C5.9537379 2.80546931 11.50189276 6.39970685 17 10 C16.67 10.66 16.34 11.32 16 12 C15.04738281 11.44570312 14.09476563 10.89140625 13.11328125 10.3203125 C11.84645443 9.58836811 10.57952173 8.85660695 9.3125 8.125 C8.37374023 7.57779297 8.37374023 7.57779297 7.41601562 7.01953125 C1.11180796 3.19237729 1.11180796 3.19237729 -6 2.1875 C-9.74756191 3.20246468 -12.82533391 4.33295279 -15.12345886 7.59437561 C-16.39589757 11.08652157 -16.28642362 14.50847252 -16.2746582 18.17749023 C-16.27976913 18.99909637 -16.28488007 19.82070251 -16.29014587 20.66720581 C-16.30403727 23.38107605 -16.30308548 26.0946922 -16.30078125 28.80859375 C-16.30466838 30.69662063 -16.30900309 32.58464664 -16.31376648 34.47267151 C-16.32122768 38.42948237 -16.32093809 42.38620401 -16.31567383 46.34301758 C-16.30987881 51.4117271 -16.32681147 56.48007125 -16.3500185 61.54872036 C-16.36475539 65.44780103 -16.36562761 69.3467937 -16.36250877 73.24589729 C-16.36302199 75.11459133 -16.36825981 76.9832903 -16.37832069 78.85195732 C-16.39066716 81.46591768 -16.38390437 84.07916614 -16.37231445 86.69311523 C-16.37995819 87.46366745 -16.38760193 88.23421967 -16.39547729 89.02812195 C-16.35065687 93.60514657 -15.53325553 96.2279275 -13 100 C-13.495 100.99 -13.495 100.99 -14 102 C-18.41317816 95.73613422 -19.14926744 91.77192227 -19.17700195 84.22143555 C-19.18357315 83.44205627 -19.19014435 82.662677 -19.19691467 81.85968018 C-19.21659436 79.28535864 -19.22829775 76.71109527 -19.23828125 74.13671875 C-19.24439454 72.81487044 -19.24439454 72.81487044 -19.25063133 71.46631813 C-19.27146836 66.80282452 -19.28578086 62.13936013 -19.29516602 57.47583008 C-19.30623149 52.66732358 -19.34063967 47.85927968 -19.38033772 43.0509367 C-19.40651826 39.34565894 -19.41485907 35.64049128 -19.41844749 31.93512917 C-19.42330894 30.16296066 -19.43491036 28.39079692 -19.45348549 26.6187191 C-19.47791041 24.13435824 -19.47690631 21.65119295 -19.4699707 19.16674805 C-19.48278076 18.44078934 -19.49559082 17.71483063 -19.50878906 16.96687317 C-19.44248811 10.42264684 -17.12165654 6.43366485 -12.875 1.5625 C-8.32376558 -0.91099697 -5.05254345 -1.2786535 0 0 Z " fill="#2A8AE5" transform="translate(141,70)"/>
<path d="M0 0 C5.61019321 1.8700644 8.26126849 8.92870478 11 14 C13.48941515 19.20514077 15.39172344 24.22137271 16 30 C14.68 29.67 13.36 29.34 12 29 C12 29.99 12 30.98 12 32 C10.1171875 31.8671875 10.1171875 31.8671875 8 31 C6.9453125 28.4453125 6.9453125 28.4453125 6.125 25.125 C4.53190666 19.31976786 2.35234172 14.62862647 -0.828125 9.53515625 C-2.22232595 6.51903486 -2.21040164 4.28513465 -2 1 C-1.34 0.67 -0.68 0.34 0 0 Z " fill="#1974CD" transform="translate(233,66)"/>
<path d="M0 0 C0.99 0 1.98 0 3 0 C3.24492188 0.70382813 3.48984375 1.40765625 3.7421875 2.1328125 C6.73039567 10.02580375 10.76670597 16.28700412 15.79296875 22.96875 C17.49081814 25.30066349 18.84902795 27.37655534 20 30 C19.34 30 18.68 30 18 30 C18.33 31.98 18.66 33.96 19 36 C15.11985064 34.47940093 13.26093438 32.13921469 10.75 28.875 C10.04359375 27.96492188 9.3371875 27.05484375 8.609375 26.1171875 C8.07828125 25.41851562 7.5471875 24.71984375 7 24 C7.33 23.34 7.66 22.68 8 22 C7.1240085 21.1240085 6.19059674 20.30622577 5.25 19.5 C2.10528099 16.00586776 -0.43433191 12.46397461 -2 8 C-1.83323666 4.94267202 -1.10888921 2.90423364 0 0 Z " fill="#2886DF" transform="translate(74,152)"/>
<path d="M0 0 C4.875 1.75 4.875 1.75 6 4 C5.72057545 5.67654729 5.39171753 7.34608154 5 9 C4.01 9 3.02 9 2 9 C1.05141506 11.33497831 0.118142 13.66958147 -0.73046875 16.04296875 C-0.98441406 16.75066406 -1.23835938 17.45835938 -1.5 18.1875 C-1.7371875 18.86167969 -1.974375 19.53585938 -2.21875 20.23046875 C-3.44811688 23.01498473 -5.86581105 24.86581105 -8 27 C-8.33 26.34 -8.66 25.68 -9 25 C-9.99 25.99 -10.98 26.98 -12 28 C-10.99970457 18.99734116 -6.59518895 6.59518895 0 0 Z " fill="#166EC7" transform="translate(80,70)"/>
<path d="M0 0 C0.4375 3.203125 0.4375 3.203125 0 7 C-2.39820068 9.03597245 -4.27514562 10.31777104 -7 11.75 C-7.64839844 12.12253906 -8.29679687 12.49507812 -8.96484375 12.87890625 C-13.49170782 15.41574294 -18.1103108 17.2755114 -23 19 C-23.66 16.69 -24.32 14.38 -25 12 C-24.40832031 11.74605469 -23.81664062 11.49210938 -23.20703125 11.23046875 C-17.57913781 8.77916769 -12.53100918 6.36516325 -7.875 2.3125 C-4.65226018 -0.27970376 -3.87723432 0 0 0 Z " fill="#3694E9" transform="translate(216,191)"/>
<path d="M0 0 C1.83203125 1.28125 1.83203125 1.28125 3.83203125 4.28125 C7.29703125 3.78625 7.29703125 3.78625 10.83203125 3.28125 C10.83203125 3.94125 10.83203125 4.60125 10.83203125 5.28125 C9.81625 5.63316406 8.80046875 5.98507813 7.75390625 6.34765625 C-3.45476302 10.3298633 -13.37848001 15.48299393 -23.16796875 22.28125 C-21.68494473 17.83217795 -18.08511374 15.53545608 -14.16796875 13.28125 C-13.50796875 13.28125 -12.84796875 13.28125 -12.16796875 13.28125 C-12.16796875 10.94782366 -12.18186625 8.61417012 -12.23046875 6.28125 C-10.95680403 2.68502021 -10.18598641 2.39737005 -6.85546875 0.78125 C-4.1097065 -0.4169008 -2.87281004 -0.95242711 0 0 Z " fill="#166BC5" transform="translate(126.16796875,34.71875)"/>
<path d="M0 0 C0.81726563 0.19464844 1.63453125 0.38929687 2.4765625 0.58984375 C3.10304687 0.74582031 3.72953125 0.90179688 4.375 1.0625 C4.21 1.660625 4.045 2.25875 3.875 2.875 C3.2635876 5.17594336 3.2635876 5.17594336 3.375 8.0625 C-1.31468995 8.24287269 -5.48398486 7.96104036 -10.09375 7.0625 C-16.72680163 5.9191153 -23.16004294 5.8344369 -29.875 5.9375 C-31.58236328 5.95103516 -31.58236328 5.95103516 -33.32421875 5.96484375 C-36.09137881 5.9880972 -38.8580676 6.02077132 -41.625 6.0625 C-41.625 5.4025 -41.625 4.7425 -41.625 4.0625 C-28.70136044 1.58100239 -15.5277473 3.27400037 -2.625 5.0625 C-2.625 4.4025 -2.625 3.7425 -2.625 3.0625 C-3.945 2.7325 -5.265 2.4025 -6.625 2.0625 C-6.625 1.4025 -6.625 0.7425 -6.625 0.0625 C-3.99249612 -1.25375194 -2.82320944 -0.68563658 0 0 Z " fill="#1966B5" transform="translate(185.625,31.9375)"/>
<path d="M0 0 C4.27917712 1.55606441 8.07561838 3.72714524 12 6 C12.8974292 6.51385254 13.7948584 7.02770508 14.71948242 7.55712891 C17.83800106 9.34341313 20.95044963 11.13997365 24.0625 12.9375 C25.12533203 13.54529297 26.18816406 14.15308594 27.28320312 14.77929688 C42.44523148 23.55831017 42.44523148 23.55831017 44 29 C44.14516709 31.69077562 44.089984 34.30047989 44 37 C43.34 37 42.68 37 42 37 C41.90203125 36.32453125 41.8040625 35.6490625 41.703125 34.953125 C40.84070256 29.53135476 40.84070256 29.53135476 38.4375 24.6875 C34.77089356 22.14908016 30.94562284 20.07391477 27 18 C25.60243367 17.25080328 24.20533701 16.50073008 22.80859375 15.75 C21.28933398 14.93699248 19.76980017 14.12449687 18.25 13.3125 C17.51692627 12.91973877 16.78385254 12.52697754 16.02856445 12.12231445 C13.09943621 10.56860877 10.25037512 9.09815256 7.16015625 7.88671875 C4.02639788 6.60034777 2.20501321 4.52001509 0 2 C0 1.34 0 0.68 0 0 Z " fill="#3994EA" transform="translate(172,89)"/>
<path d="M0 0 C0.33 0.66 0.66 1.32 1 2 C2.94603274 2.59070014 2.94603274 2.59070014 5 3 C5.66 3.33 6.32 3.66 7 4 C6.1875 7.4375 6.1875 7.4375 5 11 C4.01 11.33 3.02 11.66 2 12 C1.67 13.98 1.34 15.96 1 18 C-0.66666667 18 -2.33333333 18 -4 18 C-5.19937786 11.62740199 -5.06475363 7.76173683 -2 2 C-1.34 2 -0.68 2 0 2 C0 1.34 0 0.68 0 0 Z " fill="#1570CD" transform="translate(247,158)"/>
<path d="M0 0 C2.49505962 2.49505962 2.35948376 3.67328888 2.625 7.125 C2.69976562 8.03507813 2.77453125 8.94515625 2.8515625 9.8828125 C2.90054688 10.58148438 2.94953125 11.28015625 3 12 C2.195625 12.20625 1.39125 12.4125 0.5625 12.625 C-0.283125 13.07875 -1.12875 13.5325 -2 14 C-2.86382428 16.75706416 -2.86382428 16.75706416 -3 20 C-3.95726496 26.82051282 -3.95726496 26.82051282 -4.625 29.625 C-5.05360533 32.33950045 -4.68004494 34.35538079 -4 37 C-4.99 37.66 -5.98 38.32 -7 39 C-7.66 38.67 -8.32 38.34 -9 38 C-9 37.34 -9 36.68 -9 36 C-9.66 36 -10.32 36 -11 36 C-10.731875 35.21625 -10.46375 34.4325 -10.1875 33.625 C-9.30915778 30.94374479 -8.48247039 28.26810945 -7.6875 25.5625 C-5.97779444 19.7933397 -4.03261568 14.11052767 -2.0859375 8.41796875 C-1.19168113 5.6033129 -0.49807319 2.90542696 0 0 Z " fill="#2984D8" transform="translate(243,136)"/>
<path d="M0 0 C1.05424115 2.68521423 1.12687274 3.7066664 -0.0390625 6.40234375 C-3.01043721 11.15215209 -5.86715144 15.16955499 -10 19 C-10.98241631 20.20569275 -11.96118109 21.41436455 -12.9375 22.625 C-20.86512639 31.72708956 -30.74558235 38.70664808 -42 43 C-42.99 43.495 -42.99 43.495 -44 44 C-45.99960012 44.039992 -48.00047242 44.04346799 -50 44 C-46.96087572 41.97391714 -44.21962438 40.9188447 -40.8125 39.625 C-28.88584962 34.76581865 -17.7361971 26.30102795 -10 16 C-9.38769531 15.26007813 -8.77539062 14.52015625 -8.14453125 13.7578125 C-4.54988701 9.35529976 -1.93477155 5.34907429 0 0 Z " fill="#5599DC" transform="translate(235,160)"/>
<path d="M0 0 C0.66 0 1.32 0 2 0 C2.25652344 0.84820312 2.51304688 1.69640625 2.77734375 2.5703125 C9.64155843 23.60208139 23.84248446 39.96669012 43 51 C42.505 51.99 42.505 51.99 42 53 C40.22891052 51.87540329 38.45813764 50.75030797 36.6875 49.625 C35.70136719 48.99851563 34.71523437 48.37203125 33.69921875 47.7265625 C31.78712071 46.50348387 29.8885966 45.2590644 28 44 C28 43.34 28 42.68 28 42 C27.13955078 41.62294922 27.13955078 41.62294922 26.26171875 41.23828125 C14.20391367 34.63668503 5.02974473 18.68290194 1 6 C0.62788361 4.00685161 0.28384628 2.00762108 0 0 Z " fill="#58A1E6" transform="translate(75,146)"/>
<path d="M0 0 C-7.95916128 4.95544302 -15.9779093 9.78898074 -24.08569336 14.49755859 C-27.22782665 16.33050061 -30.27181826 18.18596386 -33.27734375 20.2421875 C-36.60789633 22.39247253 -39.05749755 22.85398139 -43 23 C-45.2109375 22.0078125 -45.2109375 22.0078125 -47 21 C-45.07994141 20.92458984 -45.07994141 20.92458984 -43.12109375 20.84765625 C-37.23989116 20.19444531 -32.99904103 17.5388093 -28.0625 14.4375 C-26.38881352 13.41193812 -24.71313032 12.38962535 -23.03515625 11.37109375 C-22.3069165 10.91661865 -21.57867676 10.46214355 -20.82836914 9.99389648 C-19 9 -19 9 -17 9 C-17 7.68 -17 6.36 -17 5 C-2.90487239 -1.45243619 -2.90487239 -1.45243619 0 0 Z " fill="#3994E7" transform="translate(178,152)"/>
<path d="M0 0 C12.16685295 0.82487139 27.00408303 4.66966089 37 12 C37 12.66 37 13.32 37 14 C35.20763933 13.52343588 33.41613103 13.04366502 31.625 12.5625 C30.62726563 12.29566406 29.62953125 12.02882813 28.6015625 11.75390625 C26 11 26 11 24 10 C24 9.34 24 8.68 24 8 C18.72 7.01 13.44 6.02 8 5 C8 4.34 8 3.68 8 3 C5.03 2.67 2.06 2.34 -1 2 C-0.67 1.34 -0.34 0.68 0 0 Z " fill="#5BA2E5" transform="translate(173,18)"/>
<path d="M0 0 C-1.33190519 0.46246708 -2.6656307 0.91969155 -4 1.375 C-4.7425 1.63023437 -5.485 1.88546875 -6.25 2.1484375 C-13.62295844 4.43154111 -19.31866473 5.21496431 -27 4.625 C-27.87011719 4.56828125 -28.74023438 4.5115625 -29.63671875 4.453125 C-31.75857631 4.3132223 -33.87942723 4.15818789 -36 4 C-36 4.66 -36 5.32 -36 6 C-38.31 5.67 -40.62 5.34 -43 5 C-42.67 4.01 -42.34 3.02 -42 2 C-43.98 2 -45.96 2 -48 2 C-48 1.34 -48 0.68 -48 0 C-46.45892578 0.2165625 -46.45892578 0.2165625 -44.88671875 0.4375 C-31.39721702 2.27356199 -18.10088445 3.14102354 -4.77734375 -0.62890625 C-3 -1 -3 -1 0 0 Z " fill="#559BE0" transform="translate(185,205)"/>
<path d="M0 0 C1.9375 0.75 1.9375 0.75 4 2 C4.75 4.125 4.75 4.125 5 6 C5.33 5.01 5.66 4.02 6 3 C9.0625 1.8125 9.0625 1.8125 12 1 C10.55218207 4.44428265 8.72305391 6.36130962 5.875 8.75 C4.78832031 9.67039063 4.78832031 9.67039063 3.6796875 10.609375 C2.84824219 11.29773438 2.84824219 11.29773438 2 12 C1.34 11.34 0.68 10.68 0 10 C0.33 9.67 0.66 9.34 1 9 C-1.76264289 8.40267181 -4.16032769 8 -7 8 C-6.02133662 6.85373678 -5.04205413 5.70800212 -4.0625 4.5625 C-3.51722656 3.92441406 -2.97195312 3.28632813 -2.41015625 2.62890625 C-1.63204305 1.73008851 -0.84063472 0.84063472 0 0 Z " fill="#0B60BC" transform="translate(221,192)"/>
<path d="M0 0 C0.66 0.66 1.32 1.32 2 2 C-5.87420927 18.39463024 -15.07138959 31.19481308 -28 44 C-28.99 43.67 -29.98 43.34 -31 43 C-30.319375 42.484375 -29.63875 41.96875 -28.9375 41.4375 C-22.98861324 36.50118971 -18.21917175 31.18644544 -13.6875 24.9375 C-13.25477783 24.34791504 -12.82205566 23.75833008 -12.3762207 23.15087891 C-9.80690008 19.52640101 -8.38130819 16.252499 -7 12 C-6.03098597 10.96994572 -5.03147202 9.96750476 -4 9 C-2.7951851 6.73972655 -2.7951851 6.73972655 -1.8125 4.3125 C-1.46832031 3.50425781 -1.12414062 2.69601563 -0.76953125 1.86328125 C-0.51558594 1.24839844 -0.26164062 0.63351563 0 0 Z " fill="#4382C8" transform="translate(256,158)"/>
<path d="M0 0 C0 0.99 0 1.98 0 3 C-5.34883721 8 -5.34883721 8 -8 8 C-7.91621094 8.556875 -7.83242187 9.11375 -7.74609375 9.6875 C-7.64425781 10.450625 -7.54242188 11.21375 -7.4375 12 C-7.33308594 12.7425 -7.22867188 13.485 -7.12109375 14.25 C-6.99369268 17.14323731 -7.32851275 19.84080772 -7.72631836 22.703125 C-8.25232625 27.11764972 -8.37573369 31.56047294 -8.5625 36 C-8.60568359 36.96550781 -8.64886719 37.93101563 -8.69335938 38.92578125 C-8.79841713 41.28374425 -8.90056914 43.64179416 -9 46 C-9.33 46 -9.66 46 -10 46 C-10.09920549 40.84055127 -10.17162646 35.68166311 -10.21972656 30.52148438 C-10.2397871 28.76780521 -10.26704251 27.01419247 -10.30175781 25.26074219 C-10.35052302 22.73355682 -10.37302392 20.20725909 -10.390625 17.6796875 C-10.41127014 16.90132538 -10.43191528 16.12296326 -10.45318604 15.3210144 C-10.4553189 10.09472362 -9.49058874 7.12502788 -6 3 C-2.75 1.125 -2.75 1.125 0 0 Z " fill="#067BEF" transform="translate(134,71)"/>
<path d="M0 0 C0.495 1.485 0.495 1.485 1 3 C0.113125 3.5775 -0.77375 4.155 -1.6875 4.75 C-3.76819265 6.12735992 -5.63208112 7.52416483 -7.5625 9.125 C-10 11 -10 11 -12.1640625 11.671875 C-16.43839505 13.67362854 -19.44271133 16.86807506 -22.8125 20.125 C-23.50537109 20.78371094 -24.19824219 21.44242188 -24.91210938 22.12109375 C-26.61428781 23.74109805 -28.30987919 25.36743551 -30 27 C-30.66 26.67 -31.32 26.34 -32 26 C-22.24822931 15.86746603 -12.08572519 7.27013643 0 0 Z " fill="#5FA3E0" transform="translate(109,29)"/>
<path d="M0 0 C1.27875 0.28875 2.5575 0.5775 3.875 0.875 C4.95394531 1.11863281 4.95394531 1.11863281 6.0546875 1.3671875 C8 2 8 2 10 4 C8.52307692 9.66153846 8.52307692 9.66153846 5.875 11.375 C5.25625 11.58125 4.6375 11.7875 4 12 C3.67 10.35 3.34 8.7 3 7 C2.01 7 1.02 7 0 7 C-0.93423645 3.98968256 -1.04449911 3.13349732 0 0 Z " fill="#0964C6" transform="translate(97,197)"/>
<path d="M0 0 C0.33 0 0.66 0 1 0 C0.67 2.31 0.34 4.62 0 7 C0.99 7 1.98 7 3 7 C2.67 7.66 2.34 8.32 2 9 C-1 10 -1 10 -3 10 C-3.33 12.64 -3.66 15.28 -4 18 C-4.99 18 -5.98 18 -7 18 C-7 18.99 -7 19.98 -7 21 C-7.66 20.67 -8.32 20.34 -9 20 C-9 19.34 -9 18.68 -9 18 C-9.66 17.67 -10.32 17.34 -11 17 C-8.67425568 13.3284598 -6.34082964 9.66194165 -4 6 C-3.56429687 5.31808594 -3.12859375 4.63617188 -2.6796875 3.93359375 C-1.81448045 2.60373847 -0.91217209 1.29809106 0 0 Z " fill="#4998DD" transform="translate(76,56)"/>
<path d="M0 0 C2.97 0 5.94 0 9 0 C9 0.66 9 1.32 9 2 C6.79290017 2.65003625 4.58426108 3.29484745 2.375 3.9375 C0.53035156 4.47697266 0.53035156 4.47697266 -1.3515625 5.02734375 C-6.88547633 6.50265911 -11.98420119 7.12392568 -17.7109375 7.09765625 C-18.95488281 7.09443359 -20.19882813 7.09121094 -21.48046875 7.08789062 C-22.76566406 7.07951172 -24.05085937 7.07113281 -25.375 7.0625 C-26.68339844 7.05798828 -27.99179688 7.05347656 -29.33984375 7.04882812 C-32.55994281 7.03707594 -35.7799477 7.02064543 -39 7 C-39 6.67 -39 6.34 -39 6 C-38.31599121 5.98018066 -37.63198242 5.96036133 -36.92724609 5.93994141 C-18.37757509 5.40883048 -18.37757509 5.40883048 0 3 C0 2.01 0 1.02 0 0 Z " fill="#2B68B1" transform="translate(185,220)"/>
<path d="M0 0 C5.96932899 2.7585432 11.50775607 6.4035463 17 10 C16.67 10.66 16.34 11.32 16 12 C15.04738281 11.44570312 14.09476563 10.89140625 13.11328125 10.3203125 C11.84645443 9.58836811 10.57952173 8.85660695 9.3125 8.125 C8.37374023 7.57779297 8.37374023 7.57779297 7.41601562 7.01953125 C1.11180796 3.19237729 1.11180796 3.19237729 -6 2.1875 C-9.41328374 3.11193101 -11.31056546 3.66443843 -14 6 C-15.6069426 9.24529124 -16.84796724 12.56964548 -18 16 C-18.33 16 -18.66 16 -19 16 C-18.78414812 9.84822149 -17.65886817 6.86300523 -13.47265625 2.34765625 C-9.57664361 -1.21766035 -4.93179931 -1.04969331 0 0 Z " fill="#3993E6" transform="translate(141,70)"/>
<path d="M0 0 C2.27209221 2.07380778 3.57866574 3.85857438 4.75390625 6.6953125 C5.05031006 7.4076001 5.34671387 8.1198877 5.65209961 8.85375977 C5.95253174 9.60326904 6.25296387 10.35277832 6.5625 11.125 C7.02765015 12.26763306 7.02765015 12.26763306 7.50219727 13.43334961 C9.54749957 18.56823574 11.10495827 23.53030056 12 29 C11.01 29 10.02 29 9 29 C8.7525 27.72125 8.505 26.4425 8.25 25.125 C7.08679021 19.92767965 5.60464519 14.67167678 3 10 C2.01 9.67 1.02 9.34 0 9 C-1.37001429 5.8033 -0.8252404 3.30096158 0 0 Z " fill="#539DE5" transform="translate(250,71)"/>
<path d="M0 0 C3.49107379 1.16369126 3.85222763 1.88973538 5.6875 4.9375 C6.34298828 6.00291016 6.34298828 6.00291016 7.01171875 7.08984375 C8 9 8 9 8 11 C7.38125 11.12375 6.7625 11.2475 6.125 11.375 C3.80879168 11.87197356 3.80879168 11.87197356 2 14 C-0.95047835 9.38987758 -2.5497272 6.63470383 -2 1 C-1.34 0.67 -0.68 0.34 0 0 Z " fill="#136BC2" transform="translate(233,66)"/>
<path d="M0 0 C11.41962131 8.09754965 21.25503058 18.07381881 27 31 C23.13098574 29.71032858 22.75915715 28.29097067 20.75 24.8125 C18.07495385 20.43154519 15.51723767 17.38060439 11.484375 14.2578125 C9.42106608 12.50942968 8.38473977 10.30789962 7 8 C5.1982816 6.36096497 3.3417706 4.83546803 1.42578125 3.33203125 C0.95527344 2.89246094 0.48476562 2.45289063 0 2 C0 1.34 0 0.68 0 0 Z " fill="#5BA1E5" transform="translate(223,39)"/>
<path d="M0 0 C3.33333333 1.33333333 6.66666667 2.66666667 10 4 C10.7425 4.268125 11.485 4.53625 12.25 4.8125 C16.33090032 6.57470696 20.14258269 8.79816267 24 11 C23.34 11.66 22.68 12.32 22 13 C21.32453125 12.71125 20.6490625 12.4225 19.953125 12.125 C19.06109375 11.75375 18.1690625 11.3825 17.25 11 C16.36828125 10.62875 15.4865625 10.2575 14.578125 9.875 C11.82246229 8.78574117 11.82246229 8.78574117 8 9 C8 8.34 8 7.68 8 7 C7.34 7 6.68 7 6 7 C6 6.01 6 5.02 6 4 C4.35 3.67 2.7 3.34 1 3 C0.67 2.01 0.34 1.02 0 0 Z " fill="#1A83E9" transform="translate(148,77)"/>
<path d="M0 0 C6.6 0 13.2 0 20 0 C20 0.33 20 0.66 20 1 C14.06 1 8.12 1 2 1 C2 14.2 2 27.4 2 41 C1.67 41 1.34 41 1 41 C0.85708001 35.64316109 0.71467681 30.28630878 0.57275391 24.92944336 C0.52439372 23.10684843 0.47589195 21.28425725 0.42724609 19.46166992 C0.35737543 16.84294592 0.28801279 14.22420889 0.21875 11.60546875 C0.19687622 10.78974899 0.17500244 9.97402924 0.15246582 9.1335907 C0.07229699 6.08808243 0 3.04671601 0 0 Z " fill="#EAEEF3" transform="translate(626,111)"/>
<path d="M0 0 C2.64 1.32 5.28 2.64 8 4 C7 7 7 7 5 8 C1.04437178 8.25797575 -1.59659693 8.09440189 -5 6 C-5 5.34 -5 4.68 -5 4 C-4.360625 3.71125 -3.72125 3.4225 -3.0625 3.125 C-0.84793921 2.17176549 -0.84793921 2.17176549 0 0 Z " fill="#0F69C9" transform="translate(201,38)"/>
<path d="M0 0 C2.49505962 2.49505962 2.35948376 3.67328888 2.625 7.125 C2.69976562 8.03507813 2.77453125 8.94515625 2.8515625 9.8828125 C2.90054688 10.58148438 2.94953125 11.28015625 3 12 C2.195625 12.20625 1.39125 12.4125 0.5625 12.625 C-0.283125 13.07875 -1.12875 13.5325 -2 14 C-2.67801034 16.90073181 -2.67801034 16.90073181 -3 20 C-4.5625 22.375 -4.5625 22.375 -6 24 C-6.33 23.34 -6.66 22.68 -7 22 C-6.30371768 19.95228363 -5.51687917 17.93501885 -4.6875 15.9375 C-2.56390495 10.62851236 -1.04641222 5.61257461 0 0 Z " fill="#408AD2" transform="translate(243,136)"/>
<path d="M0 0 C6.44973633 2.34535866 12.48752564 5.93126893 18 10 C18.33 10.99 18.66 11.98 19 13 C11.54660357 10.76398107 5.10471163 8.06184506 0 2 C0 1.34 0 0.68 0 0 Z " fill="#2D8DEE" transform="translate(172,89)"/>
<path d="M0 0 C2.31 0 4.62 0 7 0 C7 0.33 7 0.66 7 1 C5.35 1 3.7 1 2 1 C2.00523682 1.76143311 2.01047363 2.52286621 2.01586914 3.30737305 C2.03669525 6.76740692 2.04967813 10.22742759 2.0625 13.6875 C2.07087891 14.88568359 2.07925781 16.08386719 2.08789062 17.31835938 C2.09111328 18.47529297 2.09433594 19.63222656 2.09765625 20.82421875 C2.10289307 21.88729248 2.10812988 22.95036621 2.11352539 24.0456543 C2.00716844 26.8134509 1.62894788 29.30792897 1 32 C1.66 32.33 2.32 32.66 3 33 C2.67 33.66 2.34 34.32 2 35 C1.01 34.67 0.02 34.34 -1 34 C-0.67 22.78 -0.34 11.56 0 0 Z " fill="#EEF3FA" transform="translate(483,72)"/>
<path d="M0 0 C1.02867187 -0.0319043 1.02867187 -0.0319043 2.078125 -0.06445312 C6.3534587 -0.09396726 8.32069699 0.55701491 11.5625 3.25 C7.14588849 3.30804281 2.72937504 3.34361104 -1.6875 3.375 C-2.94175781 3.39175781 -4.19601563 3.40851562 -5.48828125 3.42578125 C-6.69355469 3.43222656 -7.89882812 3.43867188 -9.140625 3.4453125 C-10.80593262 3.46102295 -10.80593262 3.46102295 -12.50488281 3.47705078 C-15.37700942 3.25468334 -17.00973735 2.74281575 -19.4375 1.25 C-12.96838498 0.48247788 -6.510464 0.10116809 0 0 Z " fill="#61A8EA" transform="translate(159.4375,16.75)"/>
<path d="M0 0 C-2.07682048 1.34453118 -4.16042486 2.67555837 -6.25 4 C-6.83652344 4.3815625 -7.42304688 4.763125 -8.02734375 5.15625 C-11.3985781 7.27747611 -12.90580718 8 -17 8 C-17 7.01 -17 6.02 -17 5 C-2.90487239 -1.45243619 -2.90487239 -1.45243619 0 0 Z " fill="#1382E8" transform="translate(178,152)"/>
<path d="M0 0 C0.99 0 1.98 0 3 0 C2.67 0.99 2.34 1.98 2 3 C1.84677641 5.58330229 1.74293111 8.14492239 1.68359375 10.73046875 C1.66281265 11.48088943 1.64203156 12.23131012 1.62062073 13.00447083 C1.55530074 15.39872184 1.49632208 17.79308139 1.4375 20.1875 C1.39429807 21.81186013 1.35068324 23.43620933 1.30664062 25.06054688 C1.19963737 29.04025371 1.09832063 33.02006958 1 37 C0.67 37 0.34 37 0 37 C0 24.79 0 12.58 0 0 Z " fill="#EDF4FC" transform="translate(721,100)"/>
<path d="M0 0 C1.65 1.65 3.3 3.3 5 5 C3.68 5.33 2.36 5.66 1 6 C0.67 7.65 0.34 9.3 0 11 C-0.99 11 -1.98 11 -3 11 C-3.33 10.34 -3.66 9.68 -4 9 C-3.22265625 6.8359375 -3.22265625 6.8359375 -2.0625 4.375 C-1.68222656 3.55773438 -1.30195313 2.74046875 -0.91015625 1.8984375 C-0.60980469 1.27195313 -0.30945313 0.64546875 0 0 Z " fill="#298CE0" transform="translate(241,60)"/>
<path d="M0 0 C0.66 0.33 1.32 0.66 2 1 C1.57847656 2.10859375 1.15695313 3.2171875 0.72265625 4.359375 C0.169154 5.82287248 -0.38422496 7.2864166 -0.9375 8.75 C-1.21529297 9.47960937 -1.49308594 10.20921875 -1.77929688 10.9609375 C-2.04677734 11.66992188 -2.31425781 12.37890625 -2.58984375 13.109375 C-2.83597412 13.75874023 -3.08210449 14.40810547 -3.33569336 15.07714844 C-4.01125435 17.032576 -4.52800046 18.98665757 -5 21 C-6.17578125 19.4765625 -6.17578125 19.4765625 -7 17 C-6.18843712 14.29869684 -5.32164495 11.93233765 -4.1875 9.375 C-3.75727539 8.3540625 -3.75727539 8.3540625 -3.31835938 7.3125 C-2.27188348 4.84389019 -1.19928406 2.39856812 0 0 Z " fill="#4C90D1" transform="translate(64,75)"/>
<path d="M0 0 C0.78375 0.04125 1.5675 0.0825 2.375 0.125 C2.375 0.785 2.375 1.445 2.375 2.125 C-4.5907714 6.30446284 -10.98719554 5.39796741 -18.625 4.125 C-18.625 3.795 -18.625 3.465 -18.625 3.125 C-17.63757813 3.07601562 -16.65015625 3.02703125 -15.6328125 2.9765625 C-14.35148437 2.90179688 -13.07015625 2.82703125 -11.75 2.75 C-9.83574219 2.64558594 -9.83574219 2.64558594 -7.8828125 2.5390625 C-4.16286977 2.06626402 -3.57571796 0.17027228 0 0 Z " fill="#F4F6F6" transform="translate(475.625,167.875)"/>
<path d="M0 0 C0.144375 0.61875 0.28875 1.2375 0.4375 1.875 C0.93152225 4.03258322 0.93152225 4.03258322 2 6 C1.34 6 0.68 6 0 6 C0.33 6.99 0.66 7.98 1 9 C-2.21311475 14.73770492 -2.21311475 14.73770492 -6 16 C-4.25192871 10.53262809 -2.34205919 5.24175152 0 0 Z " fill="#F1F6F9" transform="translate(331,130)"/>
<path d="M0 0 C4.62 1.65 9.24 3.3 14 5 C14 5.66 14 6.32 14 7 C10.7 7 7.4 7 4 7 C4 6.34 4 5.68 4 5 C3.34 4.67 2.68 4.34 2 4 C1.34 2.68 0.68 1.36 0 0 Z " fill="#5BA2E6" transform="translate(119,198)"/>
<path d="M0 0 C0.33 0 0.66 0 1 0 C1.33 3.63 1.66 7.26 2 11 C0.02 11.99 0.02 11.99 -2 13 C-3.18771723 9.57056481 -2.80226223 7.62215325 -1.5625 4.25 C-1.27503906 3.45078125 -0.98757812 2.6515625 -0.69140625 1.828125 C-0.46324219 1.22484375 -0.23507813 0.6215625 0 0 Z " fill="#2B85D9" transform="translate(62,83)"/>
<path d="M0 0 C0.66 0.33 1.32 0.66 2 1 C2 2.65 2 4.3 2 6 C1.01 6 0.02 6 -1 6 C-1 6.99 -1 7.98 -1 9 C-1.66 8.67 -2.32 8.34 -3 8 C-3 7.34 -3 6.68 -3 6 C-3.66 5.67 -4.32 5.34 -5 5 C-4.1875 3.0625 -4.1875 3.0625 -3 1 C-2.01 0.67 -1.02 0.34 0 0 Z " fill="#3A8FDB" transform="translate(70,68)"/>
<path d="M0 0 C2.4375 0.75 2.4375 0.75 5 2 C5.5625 3.75 5.5625 3.75 6 6 C7.28796166 8.02951535 8.61558 10.03501678 10 12 C9.67 12.66 9.34 13.32 9 14 C7.86756424 12.61019248 6.74436881 11.21285323 5.625 9.8125 C4.99851562 9.03519531 4.37203125 8.25789062 3.7265625 7.45703125 C2.02192866 5.03120618 0.98012094 2.78690955 0 0 Z " fill="#3677BF" transform="translate(67,173)"/>
<path d="M0 0 C2.57146057 2.57146057 2.80117997 4.6050417 3.625 8.125 C3.88539063 9.22070312 4.14578125 10.31640625 4.4140625 11.4453125 C4.70410156 12.70988281 4.70410156 12.70988281 5 14 C4.01 14 3.02 14 2 14 C1.86722656 13.38511719 1.73445313 12.77023438 1.59765625 12.13671875 C1.42105469 11.32847656 1.24445313 10.52023438 1.0625 9.6875 C0.88847656 8.88699219 0.71445312 8.08648437 0.53515625 7.26171875 C0.00113841 4.854599 0.00113841 4.854599 -1 2 C-0.67 1.34 -0.34 0.68 0 0 Z " fill="#4794DE" transform="translate(257,86)"/>
<path d="M0 0 C0.598125 0.165 1.19625 0.33 1.8125 0.5 C4.11344336 1.1114124 4.11344336 1.1114124 7 1 C7.33 2.65 7.66 4.3 8 6 C4.61976483 6 2.16531063 5.12544378 -1 4 C-0.67 2.68 -0.34 1.36 0 0 Z " fill="#0C62B7" transform="translate(211,48)"/>
<path d="M0 0 C0.33 0.66 0.66 1.32 1 2 C1.804375 2.144375 2.60875 2.28875 3.4375 2.4375 C6 3 6 3 8 6 C4.7 6 1.4 6 -2 6 C-1.34 4.02 -0.68 2.04 0 0 Z " fill="#F0F5FA" transform="translate(315,167)"/>
<path d="M0 0 C1.27450447 0.59638333 2.54446877 1.20247416 3.8125 1.8125 C4.52019531 2.14894531 5.22789062 2.48539063 5.95703125 2.83203125 C8.01129035 4.00645471 9.41616278 5.25628016 11 7 C10.67 7.66 10.34 8.32 10 9 C9.34 8.34 8.68 7.68 8 7 C4.91652174 6.83318891 4.91652174 6.83318891 2 7 C2.33 5.68 2.66 4.36 3 3 C2.01 2.67 1.02 2.34 0 2 C0 1.34 0 0.68 0 0 Z " fill="#5EA7EB" transform="translate(211,31)"/>
<path d="M0 0 C0.66 0.33 1.32 0.66 2 1 C0.58671871 1.81837442 -0.83078346 2.62946219 -2.25 3.4375 C-3.43335938 4.11619141 -3.43335938 4.11619141 -4.640625 4.80859375 C-6.78833468 5.89311602 -8.65205061 6.53148716 -11 7 C-10.67 6.34 -10.34 5.68 -10 5 C-9.34 5 -8.68 5 -8 5 C-8.33 3.68 -8.66 2.36 -9 1 C-7.88625 1.020625 -6.7725 1.04125 -5.625 1.0625 C-2.16784079 1.26380718 -2.16784079 1.26380718 0 0 Z " fill="#2B8EEB" transform="translate(189,144)"/>
<path d="M0 0 C4.29 0 8.58 0 13 0 C13 0.33 13 0.66 13 1 C12.06027344 1.09087891 12.06027344 1.09087891 11.1015625 1.18359375 C10.28429687 1.26738281 9.46703125 1.35117188 8.625 1.4375 C7.81289063 1.51871094 7.00078125 1.59992188 6.1640625 1.68359375 C3.95727195 1.89090114 3.95727195 1.89090114 2 3 C1.53348793 5.12576782 1.53348793 5.12576782 1.375 7.5625 C1.30023437 8.38878906 1.22546875 9.21507813 1.1484375 10.06640625 C1.09945312 10.70449219 1.05046875 11.34257813 1 12 C0.67 12 0.34 12 0 12 C0 8.04 0 4.08 0 0 Z " fill="#EFF8FC" transform="translate(667,100)"/>
<path d="M0 0 C7.92 0 15.84 0 24 0 C23.67 0.99 23.34 1.98 23 3 C22.34 2.67 21.68 2.34 21 2 C19.40737934 1.84824451 17.80935144 1.75099675 16.2109375 1.68359375 C15.26992188 1.64169922 14.32890625 1.59980469 13.359375 1.55664062 C12.37453125 1.51732422 11.3896875 1.47800781 10.375 1.4375 C9.38242187 1.39431641 8.38984375 1.35113281 7.3671875 1.30664062 C4.91160162 1.20038931 2.45591297 1.09835036 0 1 C0 0.67 0 0.34 0 0 Z " fill="#E9F0F8" transform="translate(355,77)"/>
<path d="M0 0 C2.475 0.99 2.475 0.99 5 2 C5 4.97 5 7.94 5 11 C0 4.63636364 0 4.63636364 0 0 Z " fill="#2C8CE1" transform="translate(241,73)"/>
<path d="M0 0 C2.5 2.3125 2.5 2.3125 5 5 C5 5.99 5 6.98 5 8 C1.56404834 6.47291037 -1.11912454 4.40072955 -4 2 C-2.68 1.34 -1.36 0.68 0 0 Z " fill="#F1F8F7" transform="translate(574,133)"/>
<path d="M0 0 C0.103125 0.61875 0.20625 1.2375 0.3125 1.875 C0.87525373 4.36526484 0.87525373 4.36526484 4 6 C3.34 6 2.68 6 2 6 C1.67 6.66 1.34 7.32 1 8 C0.01 7.67 -0.98 7.34 -2 7 C-2.33 7.99 -2.66 8.98 -3 10 C-2.67 7.36 -2.34 4.72 -2 2 C-1.34 2 -0.68 2 0 2 C0 1.34 0 0.68 0 0 Z " fill="#2E86D5" transform="translate(67,72)"/>
<path d="M0 0 C0.99 0.33 1.98 0.66 3 1 C-2.445 4.96 -2.445 4.96 -8 9 C-8 8.01 -8 7.02 -8 6 C-6.35546875 4.359375 -6.35546875 4.359375 -4.1875 2.75 C-3.47980469 2.20859375 -2.77210937 1.6671875 -2.04296875 1.109375 C-1.36878906 0.74328125 -0.69460937 0.3771875 0 0 Z " fill="#3D7BBD" transform="translate(112,48)"/>
<path d="M0 0 C-0.33 1.32 -0.66 2.64 -1 4 C-2.65 3.67 -4.3 3.34 -6 3 C-6.33 2.01 -6.66 1.02 -7 0 C-3.86650268 -1.04449911 -3.01031744 -0.93423645 0 0 Z " fill="#1486F5" transform="translate(134,169)"/>
<path d="M0 0 C-1.28524261 0.86380259 -2.57842419 1.71580369 -3.875 2.5625 C-4.59429687 3.03816406 -5.31359375 3.51382813 -6.0546875 4.00390625 C-6.69664062 4.33261719 -7.33859375 4.66132813 -8 5 C-8.66 4.67 -9.32 4.34 -10 4 C-8.34655494 1.30227385 -7.50773114 0.16098792 -4.4375 -0.8125 C-2 -1 -2 -1 0 0 Z " fill="#218AE8" transform="translate(178,152)"/>
<path d="M0 0 C0.99 1.32 1.98 2.64 3 4 C2.01 4.99 1.02 5.98 0 7 C-0.99 6.01 -1.98 5.02 -3 4 C-2.01 2.68 -1.02 1.36 0 0 Z M2 1 C4 2 4 2 4 2 Z " fill="#136AC6" transform="translate(93,57)"/>
<path d="M0 0 C0.99 0.66 1.98 1.32 3 2 C1.35 3.65 -0.3 5.3 -2 7 C-2.66 6.67 -3.32 6.34 -4 6 C-2.84826645 3.53199953 -1.95216435 1.95216435 0 0 Z " fill="#F0F8F7" transform="translate(455,114)"/>
<path d="M0 0 C2.4375 0.8125 2.4375 0.8125 5 2 C5.33 2.99 5.66 3.98 6 5 C7.99665314 6.68538601 7.99665314 6.68538601 10 8 C5.17965738 7.58682778 3.09007389 5.61980085 0 2 C0 1.34 0 0.68 0 0 Z " fill="#2088EF" transform="translate(172,89)"/>
<path d="M0 0 C1.32 0.66 2.64 1.32 4 2 C4 2.99 4 3.98 4 5 C3.34 5 2.68 5 2 5 C1.67 5.66 1.34 6.32 1 7 C0.34 5.02 -0.32 3.04 -1 1 C-0.67 0.67 -0.34 0.34 0 0 Z " fill="#F3F6F5" transform="translate(394,160)"/>
<path d="M0 0 C0.66 0.66 1.32 1.32 2 2 C-2.79300133 3.39151652 -7.15135782 2.68662689 -12 2 C-12 1.67 -12 1.34 -12 1 C-10.04310341 0.77857745 -8.08438048 0.5732432 -6.125 0.375 C-4.48917969 0.20097656 -4.48917969 0.20097656 -2.8203125 0.0234375 C-1.88960938 0.01570312 -0.95890625 0.00796875 0 0 Z " fill="#F2F2FB" transform="translate(381,133)"/>
<path d="M0 0 C-1 2 -1 2 -2.84765625 2.6328125 C-3.57855469 2.79523437 -4.30945313 2.95765625 -5.0625 3.125 C-5.79597656 3.29257812 -6.52945313 3.46015625 -7.28515625 3.6328125 C-7.85105469 3.75398438 -8.41695313 3.87515625 -9 4 C-9.33 3.34 -9.66 2.68 -10 2 C-3.375 -1.125 -3.375 -1.125 0 0 Z " fill="#6BACE4" transform="translate(125,24)"/>
<path d="M0 0 C2.97 0.33 5.94 0.66 9 1 C8.67 1.66 8.34 2.32 8 3 C5.03 2.67 2.06 2.34 -1 2 C-0.67 1.34 -0.34 0.68 0 0 Z " fill="#66A8EE" transform="translate(173,18)"/>
<path d="M0 0 C1 3 1 3 0.22265625 4.82421875 C-0.8515625 6.54947917 -1.92578125 8.27473958 -3 10 C-4.125 6.25 -4.125 6.25 -3 4 C-2.34 4 -1.68 4 -1 4 C-1.33 3.01 -1.66 2.02 -2 1 C-1.34 0.67 -0.68 0.34 0 0 Z " fill="#EFF4FB" transform="translate(957,149)"/>
<path d="M0 0 C2.15634036 2.15634036 3.47793991 4.37098712 5 7 C3.68 7.33 2.36 7.66 1 8 C-0.35439668 5.29120665 -0.06501451 2.99066732 0 0 Z " fill="#1671CE" transform="translate(59,146)"/>
<path d="M0 0 C0.66 0.33 1.32 0.66 2 1 C0.35 3.64 -1.3 6.28 -3 9 C-4 7 -4 7 -3.1875 3.9375 C-2 1 -2 1 0 0 Z " fill="#3379C6" transform="translate(251,169)"/>
<path d="M0 0 C0 0.99 0 1.98 0 3 C-1.65 3 -3.3 3 -5 3 C-5.33 2.01 -5.66 1.02 -6 0 C-3.50907189 -1.24546405 -2.58919267 -0.7767578 0 0 Z " fill="#F7F1EE" transform="translate(487,163)"/>
<path d="M0 0 C0.99 0.33 1.98 0.66 3 1 C4.1875 3.5625 4.1875 3.5625 5 6 C4.01 6 3.02 6 2 6 C0 3 0 3 0 0 Z " fill="#F4F5F8" transform="translate(616,161)"/>
<path d="M0 0 C1.98 0.99 1.98 0.99 4 2 C3.34 2 2.68 2 2 2 C2.66 4.31 3.32 6.62 4 9 C3.01 9 2.02 9 1 9 C0.67 6.03 0.34 3.06 0 0 Z " fill="#1E75CD" transform="translate(244,100)"/>
<path d="M0 0 C1.65 0 3.3 0 5 0 C5 1.32 5 2.64 5 4 C4.01 4.33 3.02 4.66 2 5 C1.34 4.34 0.68 3.68 0 3 C0 2.01 0 1.02 0 0 Z " fill="#1268C9" transform="translate(67,169)"/>
<path d="M0 0 C0.66 0.66 1.32 1.32 2 2 C-2.625 5 -2.625 5 -6 5 C-6 4.34 -6 3.68 -6 3 C-4.02 2.01 -2.04 1.02 0 0 Z " fill="#F0F7FB" transform="translate(714,167)"/>
<path d="M0 0 C2 2 2 2 2.125 5.625 C2.08375 6.73875 2.0425 7.8525 2 9 C1.34 9 0.68 9 0 9 C-1.10844919 5.67465243 -0.84454356 3.37817425 0 0 Z " fill="#468BCD" transform="translate(243,136)"/>
<path d="M0 0 C1.41377341 2.63904371 2.37240135 5.07120629 3 8 C2.01 8 1.02 8 0 8 C-0.38063221 5.6739143 -0.71269945 3.33944736 -1 1 C-0.67 0.67 -0.34 0.34 0 0 Z " fill="#2B7AC6" transform="translate(245,133)"/>
<path d="M0 0 C2.64 0 5.28 0 8 0 C7.34 1.32 6.68 2.64 6 4 C5.34 3.67 4.68 3.34 4 3 C2.67139075 2.64830932 1.33841672 2.31229724 0 2 C0 1.34 0 0.68 0 0 Z " fill="#48A1EE" transform="translate(145,19)"/>
</svg>
